<?xml version="1.0" standalone="no"?><!DOCTYPE svg PUBLIC "-//W3C//DTD SVG 1.1//EN" "http://www.w3.org/Graphics/SVG/1.1/DTD/svg11.dtd"><svg t="1655004923425" class="icon" viewBox="0 0 1024 1024" version="1.1" xmlns="http://www.w3.org/2000/svg" p-id="14146" xmlns:xlink="http://www.w3.org/1999/xlink" width="128" height="128"><defs><style type="text/css">@font-face { font-family: element-icons; src: url("chrome-extension://moombeodfomdpjnpocobemoiaemednkg/fonts/element-icons.woff") format("woff"), url("chrome-extension://moombeodfomdpjnpocobemoiaemednkg/fonts/element-icons.ttf ") format("truetype"); }
@font-face { font-family: feedback-iconfont; src: url("//at.alicdn.com/t/font_1031158_u69w8yhxdu.woff2?t=1630033759944") format("woff2"), url("//at.alicdn.com/t/font_1031158_u69w8yhxdu.woff?t=1630033759944") format("woff"), url("//at.alicdn.com/t/font_1031158_u69w8yhxdu.ttf?t=1630033759944") format("truetype"); }
</style></defs><path d="M179.2512 423.8336h76.4928a34.7648 34.7648 0 0 0 0-69.5296H179.2512a34.7648 34.7648 0 0 0 0 69.5296z" fill="#8486F8" p-id="14147"></path><path d="M770.1504 127.0784H292.7616c-47.8208 0-86.5792 38.7584-86.5792 86.5792v99.328h49.6128c42.0352 0 76.0832 34.048 76.0832 76.0832 0 42.0352-34.048 76.0832-76.0832 76.0832h-49.6128v125.3376h49.6128c42.0352 0 76.0832 34.048 76.0832 76.0832s-34.048 76.0832-76.0832 76.0832h-49.6128v79.3088c0 47.8208 38.7584 86.5792 86.5792 86.5792h477.3888c47.8208 0 86.5792-38.7584 86.5792-86.5792V213.6576c0.0512-47.8208-38.7584-86.5792-86.5792-86.5792z m-102.0928 442.4192c-30.72 33.9456-67.7376 60.3136-104.4992 86.9376-12.6464 9.1648-27.2896 8.3968-40.8064-1.6384-21.5552-16.0768-42.9568-32.3584-63.8976-49.2032-20.3264-16.3328-38.8096-34.6624-54.0672-56.064-30.0032-42.0352-29.1328-100.8128 2.9184-140.032 18.2784-22.3232 42.6496-31.744 71.3728-30.6176 24.0128 0.9728 44.9024 9.0112 61.7984 26.5216 0.768 0.768 1.536 1.4848 2.3552 2.2016 0.3072 0.256 0.768 0.3584 1.8432 0.8192 13.0048-13.2608 27.5968-23.4496 46.08-27.1872 58.88-11.8784 100.3008 21.1968 111.9744 74.1376 9.728 44.4928-5.5296 81.5104-35.072 114.1248z" fill="#6C6CEA" p-id="14148"></path><path d="M290.56 666.624a34.7648 34.7648 0 0 0-34.7648-34.7648H179.2512a34.7648 34.7648 0 0 0 0 69.5296h76.4928c19.2512 0 34.816-15.5648 34.816-34.7648z" fill="#757BF2" p-id="14149"></path><path d="M856.7808 411.392V213.6576c0-47.8208-38.7584-86.5792-86.5792-86.5792H292.7616c-47.8208 0-86.5792 38.7584-86.5792 86.5792v99.328h49.6128c42.0352 0 76.0832 34.048 76.0832 76.0832 0 42.0352-34.048 76.0832-76.0832 76.0832h-49.6128v125.3376h49.6128c42.0352 0 76.0832 34.048 76.0832 76.0832 0 42.0352-34.048 76.0832-76.0832 76.0832h-49.6128v79.3088c0 22.0672 8.3456 42.1376 21.9136 57.4464 18.1248 1.6896 36.4544 2.6112 54.9888 2.6112 283.9552 0.0512 520.6016-202.2912 573.696-470.6304z m-449.024-1.8944c18.2784-22.3232 42.6496-31.744 71.3728-30.6176 24.0128 0.9728 44.9024 9.0112 61.7984 26.5216 0.768 0.768 1.536 1.4848 2.3552 2.2016 0.3072 0.256 0.768 0.3584 1.8432 0.8192 13.0048-13.2608 27.5968-23.4496 46.08-27.1872 58.88-11.8784 100.3008 21.1968 111.9744 74.1376 9.7792 44.4928-5.5296 81.5104-35.0208 114.0736-30.72 33.9456-67.7376 60.3136-104.4992 86.9376-12.6464 9.1648-27.2896 8.3968-40.8064-1.6384-21.5552-16.0768-42.9568-32.3584-63.8976-49.2032-20.3264-16.3328-38.8096-34.6624-54.0672-56.064-30.0544-41.9328-29.2352-100.7616 2.8672-139.9808z" fill="#757BF2" p-id="14150"></path><path d="M292.7616 127.0784c-47.8208 0-86.5792 38.7584-86.5792 86.5792v99.328h49.6128c42.0352 0 76.0832 34.048 76.0832 76.0832 0 42.0352-34.048 76.0832-76.0832 76.0832h-49.6128v125.3376h49.6128c31.9488 0 59.2384 19.712 70.5024 47.5648 38.2976-14.1824 74.7008-32.256 108.6976-53.76-10.9568-10.7008-21.1968-22.1696-30.208-34.7648-30.0032-42.0352-29.1328-100.8128 2.9184-140.032 18.2784-22.3232 42.6496-31.744 71.3728-30.6176 24.0128 0.9728 44.9024 9.0112 61.7984 26.5216 0.768 0.768 1.536 1.4848 2.3552 2.2016 0.3072 0.256 0.768 0.3584 1.8432 0.8192 13.0048-13.2608 27.5968-23.4496 46.08-27.1872 14.2848-2.8672 27.4944-3.072 39.5264-1.024 43.264-75.4176 70.1952-161.4336 76.032-253.184H292.7616z" fill="#8486F8" p-id="14151"></path><path d="M206.1824 213.6576v99.328h49.6128c29.1328 0 54.4256 16.384 67.1744 40.3968 79.0528-58.368 142.8992-136.1408 184.4224-226.304H292.7616c-47.8208 0-86.5792 38.7584-86.5792 86.5792zM255.7952 354.304H179.2512a34.7648 34.7648 0 0 0-34.7648 34.7648c0 8.96 3.4816 16.9984 9.0112 23.1424 60.8256-9.0112 105.2672-25.344 133.3248-38.5536-5.6832-11.4176-17.408-19.3536-31.0272-19.3536z" fill="#8D92F8" p-id="14152"></path><path d="M255.7952 631.808H179.2512a34.7648 34.7648 0 0 0-34.7648 34.7648c0 3.328 0.6144 6.5024 1.4848 9.5232 60.5696-5.632 109.2096-16.64 140.5952-25.344-5.7344-11.1616-17.3056-18.944-30.7712-18.944z" fill="#8486F8" p-id="14153"></path></svg>