<?xml version="1.0" standalone="no"?><!DOCTYPE svg PUBLIC "-//W3C//DTD SVG 1.1//EN" "http://www.w3.org/Graphics/SVG/1.1/DTD/svg11.dtd"><svg t="1654918017034" class="icon" viewBox="0 0 1024 1024" version="1.1" xmlns="http://www.w3.org/2000/svg" p-id="5286" xmlns:xlink="http://www.w3.org/1999/xlink" width="128" height="128"><defs><style type="text/css">@font-face { font-family: element-icons; src: url("chrome-extension://moombeodfomdpjnpocobemoiaemednkg/fonts/element-icons.woff") format("woff"), url("chrome-extension://moombeodfomdpjnpocobemoiaemednkg/fonts/element-icons.ttf ") format("truetype"); }
@font-face { font-family: feedback-iconfont; src: url("//at.alicdn.com/t/font_1031158_u69w8yhxdu.woff2?t=1630033759944") format("woff2"), url("//at.alicdn.com/t/font_1031158_u69w8yhxdu.woff?t=1630033759944") format("woff"), url("//at.alicdn.com/t/font_1031158_u69w8yhxdu.ttf?t=1630033759944") format("truetype"); }
</style></defs><path d="M64 288a160 160 0 0 1 160-160h576a160 160 0 0 1 160 160v448a160 160 0 0 1-160 160H224a160 160 0 0 1-160-160V288z" fill="#FFC2C2" p-id="5287"></path><path d="M140 151.776l813.216 630.528A160.064 160.064 0 0 1 800 896H224a160 160 0 0 1-160-160V288c0-57.568 30.4-108.032 76-136.224z" fill="#FFD9D9" p-id="5288"></path><path d="M221.344 128a160.064 160.064 0 0 0-154.208 117.12l423.552 304.096a64 64 0 0 0 74.624 0l395.712-284.128A160.032 160.032 0 0 0 802.656 128H221.344z" fill="#FF8686" p-id="5289"></path></svg>