<?xml version="1.0" standalone="no"?><!DOCTYPE svg PUBLIC "-//W3C//DTD SVG 1.1//EN" "http://www.w3.org/Graphics/SVG/1.1/DTD/svg11.dtd"><svg t="1654928649830" class="icon" viewBox="0 0 1024 1024" version="1.1" xmlns="http://www.w3.org/2000/svg" p-id="22267" xmlns:xlink="http://www.w3.org/1999/xlink" width="128" height="128"><defs><style type="text/css">@font-face { font-family: element-icons; src: url("chrome-extension://moombeodfomdpjnpocobemoiaemednkg/fonts/element-icons.woff") format("woff"), url("chrome-extension://moombeodfomdpjnpocobemoiaemednkg/fonts/element-icons.ttf ") format("truetype"); }
@font-face { font-family: feedback-iconfont; src: url("//at.alicdn.com/t/font_1031158_u69w8yhxdu.woff2?t=1630033759944") format("woff2"), url("//at.alicdn.com/t/font_1031158_u69w8yhxdu.woff?t=1630033759944") format("woff"), url("//at.alicdn.com/t/font_1031158_u69w8yhxdu.ttf?t=1630033759944") format("truetype"); }
</style></defs><path d="M753.371429 751.281633H270.628571c-41.795918 0-75.232653-33.436735-75.232653-75.232653V169.273469c0-41.795918 33.436735-75.232653 75.232653-75.232653h483.787756c41.795918 0 75.232653 33.436735 75.232653 75.232653v505.730613c0 41.795918-34.481633 76.277551-76.277551 76.277551z" fill="#F9A29B" p-id="22268"></path><path d="M835.918367 929.959184H188.081633c-39.706122 0-71.053061-32.391837-71.053062-71.053062V500.506122c0-39.706122 32.391837-71.053061 71.053062-71.053061h138.971428v94.040817c0 34.481633 28.212245 62.693878 62.693878 62.693877h245.55102c34.481633 0 62.693878-28.212245 62.693878-62.693877v-94.040817H835.918367c39.706122 0 71.053061 32.391837 71.053062 71.053061v357.355102c1.044898 39.706122-31.346939 72.097959-71.053062 72.09796z" fill="#F85757" p-id="22269"></path><path d="M625.893878 392.881633c-10.44898-10.44898-27.167347-10.44898-37.616327 0l-49.110204 49.110204V254.955102c0-14.628571-11.493878-27.167347-27.167347-27.167347s-27.167347 11.493878-27.167347 27.167347v185.991837l-49.110204-49.110204c-10.44898-10.44898-27.167347-10.44898-37.616327 0s-10.44898 27.167347 0 37.616326l95.085715 95.085715c5.22449 5.22449 12.538776 8.359184 18.808163 8.359183s13.583673-3.134694 18.808163-8.359183l95.085715-95.085715c10.44898-9.404082 10.44898-26.122449 0-36.571428z" fill="#F85757" p-id="22270"></path></svg>