<?xml version="1.0" standalone="no"?><!DOCTYPE svg PUBLIC "-//W3C//DTD SVG 1.1//EN" "http://www.w3.org/Graphics/SVG/1.1/DTD/svg11.dtd"><svg t="1598841733444" class="icon" viewBox="0 0 1199 1024" version="1.1" xmlns="http://www.w3.org/2000/svg" p-id="42059" width="149.875" height="128" xmlns:xlink="http://www.w3.org/1999/xlink"><defs><style type="text/css"></style></defs><path d="M897.201215 602.606034c-12.672643 218.843439-186.506349 399.23196-404.738005 419.420792-176.980017 16.34334-335.082166-70.267622-421.60573-206.782578-13.022233-20.538422 1.747951-47.456864 26.131864-47.456864h0.524385c17.916496 0 35.658196-1.136168 52.962909-3.233709 64.848974-7.516188 125.502867-29.103381 178.815366-61.440471C427.002453 644.032468 500.154193 548.856547 530.393742 435.938927c10.050717-37.143954 15.381967-76.210654 15.381967-116.413523 0-33.560655-10.575102-81.192314-20.97541-120.171617-7.253996-26.918442 20.625819-49.641802 45.446721-36.969159C662.975809 210.103685 825.27304 306.153581 866.786871 410.94323c23.247745 58.731146 34.347233 123.580121 30.414344 191.662804z" fill="#2E2263" p-id="42060"></path><path d="M630.026937 744.277446c-36.095184 0-69.655839-10.749897-97.710449-29.190779-4.98166-3.233709-11.36168 1.136168-9.96332 6.904406 11.274283 49.117417 55.147847 85.736986 107.673769 85.736986s96.399486-36.619569 107.673768-85.736986c1.310963-5.768238-4.98166-10.138115-9.963319-6.904406-28.05461 18.440881-61.615265 29.190778-97.710449 29.190779z" fill="#F7ED02" p-id="42061"></path><path d="M293.721205 232.564852L273.182784 212.026431c-5.68084-5.68084-5.68084-14.857582 0-20.538422l20.538421-20.538422c5.68084-5.68084 14.857582-5.68084 20.538422 0l20.538422 20.538422c5.68084 5.68084 5.68084 14.857582 0 20.538422L314.259627 232.564852c-5.68084 5.593443-14.944979 5.593443-20.538422 0z" fill="#FD5681" p-id="42062"></path><path d="M23.400616 478.151938l-10.225512-10.225512c-2.796721-2.796721-2.796721-7.428791 0-10.225512l10.225512-10.225512c2.796721-2.796721 7.428791-2.796721 10.225512 0l10.225512 10.225512c2.796721 2.796721 2.796721 7.428791 0 10.225512l-10.225512 10.225512c-2.796721 2.796721-7.428791 2.796721-10.225512 0zM1014.488713 392.502349l-20.538422-20.538421c-5.68084-5.68084-5.68084-14.857582 0-20.538422l20.538422-20.538422c5.68084-5.68084 14.857582-5.68084 20.538421 0l20.538422 20.538422c5.68084 5.68084 5.68084 14.857582 0 20.538422l-20.538422 20.538421c-5.68084 5.593443-14.857582 5.593443-20.538421 0z" fill="#3E47FD" p-id="42063"></path><path d="M194.787191 166.841903l-15.381967-15.381967c-4.195082-4.195082-4.195082-11.186885 0-15.381967l15.381967-15.381967c4.195082-4.195082 11.186885-4.195082 15.381967 0l15.381967 15.381967c4.195082 4.195082 4.195082 11.186885 0 15.381967l-15.381967 15.381967c-4.282479 4.195082-11.186885 4.195082-15.381967 0zM763.919967 49.292212L748.538 33.910245c-4.195082-4.195082-4.195082-11.186885 0-15.381967l15.381967-15.381967c4.195082-4.195082 11.186885-4.195082 15.381967 0l15.381967 15.381967c4.195082 4.195082 4.195082 11.186885 0 15.381967l-15.381967 15.381967c-4.282479 4.282479-11.186885 4.282479-15.381967 0zM1015.013098 113.092416l-10.225512-10.225512c-2.796721-2.796721-2.796721-7.428791 0-10.225512l10.225512-10.225512c2.796721-2.796721 7.428791-2.796721 10.225512 0l10.225512 10.225512c2.796721 2.796721 2.796721 7.428791 0 10.225512l-10.225512 10.225512c-2.796721 2.796721-7.341393 2.796721-10.225512 0z" fill="#FD5681" p-id="42064"></path><path d="M609.838105 607.762489c0 17.654303-14.333196 31.987499-31.987499 31.987499-17.654303 0-31.987499-14.333196-31.9875-31.987499h63.974999zM705.888001 607.762489c0 17.654303 14.333196 31.987499 31.9875 31.987499 17.654303 0 31.987499-14.333196 31.987499-31.987499h-63.974999z" fill="#F7ED02" p-id="42065"></path><path d="M929.188714 461.459008c4.806865 11.36168 4.457275 24.733504-1.922746 35.308606-7.778381 12.934836-21.062807 21.849385-44.922335 21.849385-47.893852 0-47.893852-72.365163-95.52551-72.365163-47.893852 0-47.893852 72.365163-95.787704 72.365163-47.631659 0-47.631659-72.365163-95.52551-72.365163-47.631659 0-47.631659 72.365163-95.525511 72.365163h-0.436987c-15.119774 0-26.219262-14.071004-22.810758-28.753791 10.487705-45.009733 15.99375-91.854814 15.99375-139.836063 0-81.541904-15.906352-159.238317-44.660143-230.642106-5.33125-13.197028 5.768238-27.093237 19.751844-24.646106C676.08544 131.183707 848.608183 272.06854 929.188714 461.459008z" fill="#7933FF" p-id="42066"></path><path d="M864.252342 391.016591c11.71127 0 19.664446-2.184938 25.694877-6.03043 6.554815 10.749897 12.585246 21.499795 18.440881 32.424487-9.089344 15.906352-16.780328 28.229405-44.135758 28.229405-47.981249 0-47.981249-72.365163-95.52551-72.365162-47.981249 0-47.981249 72.365163-95.875101 72.365162-47.631659 0-47.631659-72.365163-95.52551-72.365162-46.495491 0-47.631659 68.956659-92.117007 72.190367 2.884119-18.266086 4.894262-36.794364 6.03043-55.584835 38.629712-8.739754 41.776024-71.316392 86.086577-71.316392 47.981249 0 47.981249 72.365163 95.52551 72.365163 47.981249 0 47.981249-72.365163 95.875101-72.365163 47.544261 0.087398 47.544261 72.45256 95.52551 72.45256z" fill="#8C71FF" p-id="42067"></path><path d="M697.847427 767.787384c-4.369877 0-8.040574 3.583299-8.040573 8.040573 0-4.369877-3.583299-8.040574-8.040574-8.040573-4.369877 0-8.040574 3.583299-8.040573 8.040573 0-4.369877-3.583299-8.040574-8.040574-8.040573-4.369877 0-8.040574 3.583299-8.040574 8.040573v82.328482c0 4.369877 3.583299 8.040574 8.040574 8.040574 4.369877 0 8.040574-3.583299 8.040574-8.040574v-38.454917c0-4.369877 3.583299-8.040574 8.040573-8.040574 4.369877 0 8.040574 3.583299 8.040574 8.040574v15.99375c0 4.369877 3.583299 8.040574 8.040573 8.040573 4.369877 0 8.040574-3.583299 8.040574-8.040573v-59.954712c0-4.369877-3.583299-7.953176-8.040574-7.953176z" fill="#F7ED02" p-id="42068"></path><path d="M482.762083 115.277354m-65.460757 0a65.460757 65.460757 0 1 0 130.921514 0 65.460757 65.460757 0 1 0-130.921514 0Z" fill="#FD5681" p-id="42069"></path><path d="M482.762083 115.277354m-40.902048 0a40.902048 40.902048 0 1 0 81.804096 0 40.902048 40.902048 0 1 0-81.804096 0Z" fill="#F7ED02" p-id="42070"></path><path d="M737.875501 607.762489m-15.99375 0a15.99375 15.99375 0 1 0 31.987499 0 15.99375 15.99375 0 1 0-31.987499 0Z" fill="#2E2263" p-id="42071"></path><path d="M577.763208 607.762489m-15.993749 0a15.99375 15.99375 0 1 0 31.987499 0 15.99375 15.99375 0 1 0-31.987499 0Z" fill="#2E2263" p-id="42072"></path></svg>