<?xml version="1.0" standalone="no"?><!DOCTYPE svg PUBLIC "-//W3C//DTD SVG 1.1//EN" "http://www.w3.org/Graphics/SVG/1.1/DTD/svg11.dtd"><svg t="1654919267631" class="icon" viewBox="0 0 1024 1024" version="1.1" xmlns="http://www.w3.org/2000/svg" p-id="7148" xmlns:xlink="http://www.w3.org/1999/xlink" width="128" height="128"><defs><style type="text/css">@font-face { font-family: element-icons; src: url("chrome-extension://moombeodfomdpjnpocobemoiaemednkg/fonts/element-icons.woff") format("woff"), url("chrome-extension://moombeodfomdpjnpocobemoiaemednkg/fonts/element-icons.ttf ") format("truetype"); }
@font-face { font-family: feedback-iconfont; src: url("//at.alicdn.com/t/font_1031158_u69w8yhxdu.woff2?t=1630033759944") format("woff2"), url("//at.alicdn.com/t/font_1031158_u69w8yhxdu.woff?t=1630033759944") format("woff"), url("//at.alicdn.com/t/font_1031158_u69w8yhxdu.ttf?t=1630033759944") format("truetype"); }
</style></defs><path d="M212.338083 447.033359l-1.609661-4.959965-1.289366-6.503111-0.899486-3.561105v-14.635325l1.546216-5.731538 1.60966-6.121418 2.060939-6.360871 2.802836-7.116072 3.703345-7.390317 5.216815-7.40669v-5.201466l0.514723-4.847401 0.771573-6.618745 2.255367-7.373944 2.061962-8.019651 1.641383-3.703345 1.900279-3.430122 2.446726-3.814886 2.641153-2.820232v-18.322297l1.547239-9.434883 1.546216-10.951423 2.767019-13.105483 3.802606-13.623275 2.832512-7.521301 2.802836-8.145517 3.056615-7.634888 3.674693-8.145517 3.736091-8.92016 4.313235-8.389064 4.831029-8.921184 6.117324-8.92323 2.802836-5.088902 3.027963-4.200672 6.535857-9.41851 6.701632-9.42158 7.66354-9.67536 8.178263-9.438976 8.890485-9.273201 9.274224-9.56689 11.208272-10.304693 7.149841-6.246261 8.66331-6.747681 8.792247-5.975085 9.530051-5.731538 9.147334-5.087879 10.305716-4.202718 10.948353-5.233188 10.886955-3.559059 10.884908-3.686972 11.720949-3.687996 11.722996-2.801812 12.366655-2.302439 12.495592-2.029216 12.300141-1.657756 12.366655-1.675153 13.141299-0.73985h38.83754l12.94687 1.641383 13.010315 1.546216 13.270235 1.400906 12.30014 2.930749 13.009292 2.785439 12.209066 3.17225 13.362332 3.575431 12.237719 4.330632 11.724019 4.959965 12.495592 5.233188 11.432377 5.732562 11.07729 6.343475 10.853185 7.020904 9.405208 6.489807 4.313235 3.686973 4.574179 2.673899 8.696056 7.390317 7.340175 7.133468 7.278777 7.390317 7.149841 8.148587 5.863544 7.888668 6.954389 8.148587 4.897544 8.774851 4.926196 7.779173 5.246491 9.049097 4.317328 7.888668 7.344269 16.682961 3.604084 8.646937 2.802836 8.020674 2.803859 8.662287 2.509147 8.145517 1.804089 7.004531 2.255367 8.277524 3.993964 14.767332 2.541892 12.865005 1.64343 12.478196 1.417279 10.048867 2.255367 15.281031 0.514723 2.430353 1.804089 2.803859 4.827958 7.887644 3.093455 5.332448 2.77009 5.619998 3.541663 5.972015 3.093454 7.148817 1.994424 7.378038 2.189875 8.01658 1.675153 8.261151 0.771572 4.071736 0.64673 4.976338v4.333702l-0.64673 4.329608v5.362125l-1.286295 5.200442-2.317789 10.065239-2.641153 5.088902-1.933026 5.731538v1.400906l0.90051 1.787716 2.641153 4.200672 11.466146 16.940834 9.078773 12.722766 4.317328 8.534374 5.859452 9.290597 5.088902 10.193153 5.863544 10.93198 5.860475 12.237719 6.601348 13.880125 3.703345 8.518001 3.41375 8.277524 2.964518 8.792247 2.898003 7.887644 2.189875 8.277524 2.252297 7.779173 2.836605 15.150049 2.252297 15.522531 1.546215 13.752212v19.353791l-1.031492 6.89299-1.480724 11.83556-2.060939 10.69048-3.1569 9.66308-1.157359 3.943822-2.189875 4.719488-1.869581 3.317559-2.446725 4.072759-2.189875 2.562358-2.77009 3.301186-2.446725 2.670829-2.641153 2.285043-3.155877 1.40193-2.833535 1.400906-2.317788 0.759293h-3.545756l-2.285043-0.759293-4.345981-2.156106-1.998517-1.40193-2.060939-1.529843-2.286066-2.044566-2.288113-2.285042-3.799536-4.204765-4.507663-5.973039-3.541663-6.136767-3.544733-4.943592-3.443425-5.731538-4.863774-10.193153-5.474689-10.57894-0.646729-0.369413h-0.899486l-2.25639 1.658779-1.285273 2.786463-2.127454 3.443425-3.736091 10.321067-5.603624 14.639418-7.211239 17.567097-5.412267 8.791224-5.698792 9.16166-6.730285 10.305717-7.14984 10.08059-3.673669 4.574178-4.442173 4.959965-10.209525 10.061147 0.900509 0.887206 1.384533 1.418303 5.088902 3.040242 21.25714 10.193154 9.2732 5.217838 8.824993 5.087878 8.758478 6.378268 7.792477 6.618744 3.802605 2.927679 2.832512 3.430123 2.899026 3.963265 2.446725 4.330631 1.289366 3.558036 1.609661 4.333702 0.642636 3.686972 0.775666 4.329609-0.775666 2.915399v2.931772l-0.642636 3.056616-1.609661 2.802836-0.642636 2.173502-1.418302 2.657526-3.865028 5.234211-3.541663 4.200672-2.77009 3.173273-2.317788 2.301415-5.863545 4.316306-6.632047 3.720741-7.086395 3.558036-7.535627 3.429099-8.501628 3.301186-4.508687 1.418302-4.058433 1.124614-9.787924 2.304485-10.177803 2.15713-10.175757 2.173502-11.080359 1.787716-11.4641 0.500397-11.722995 1.398859h-36.390815l-13.138229-0.7552-12.237719-1.144056-13.141298-1.787716-13.075806-1.401929-13.780865-1.91563-13.33368-3.317558-13.012361-2.542916-12.9438-3.686972-13.270235-4.718465-13.010315-3.944846-6.825453-2.271739-6.121417-2.189876-3.865028-1.51347-3.798512-0.7552H537.799596l-12.494569-0.903579-6.345522-0.642636-8.148587-0.90051-5.216815 4.715395-7.14984 4.461615-9.662057 4.719488-10.691503 5.860475-6.503111 3.188622-6.764054 2.52552-15.007809 6.121418-8.148587 2.044565-8.534374 2.285043-11.848862 2.289136-7.406691 0.626263-7.858991 0.642637-8.181333 0.903579-9.531074 0.385787H349.370039l-21.995967-0.385787-21.320584-2.172479-10.819417-1.514493-10.434653-1.546216-10.17678-1.51347-10.17678-2.044565-9.434883-3.060709-9.437954-2.15713-8.501627-3.429099-8.05035-3.188622-7.472182-3.575432-6.503111-3.943822-6.506181-4.719488-2.189875-2.285043-2.899027-2.786463-2.189875-2.446725-1.998517-2.786462-1.799995-2.803859-1.418303-2.799766-2.028193-5.975085-0.741897-3.060709-0.899486-3.442402v-3.172249l0.899486-3.559059v-3.590782l0.741897-3.558035v-7.136538l0.353041-3.815909 1.675152-4.329608 1.418303-4.333702 2.575661-5.216815 1.866511-2.028193 1.546215-2.301415 4.056386-4.959965 3.221368-2.545986 3.027963-1.787716 2.802836-2.285043 4.474918-1.400906 3.541663-2.15713 4.445242-2.301415 5.088901-1.514493 5.088902-1.546216 5.859451-1.272993 5.602602-0.7552 6.635117-0.887206 7.149841-0.514723 1.899256-0.642637h0.385786l0.90358-0.774643v-0.867763l-1.289366-1.787716-3.831258-1.786693-9.531074-8.277524-6.377245-5.088901-7.40669-6.489808-7.473205-7.245008-7.792477-9.305947-8.887414-10.434653-3.350305-5.622044-4.445242-5.844102-3.799536-6.763031-3.412726-7.373944-4.6366-7.004531-3.02694-8.020674-3.575432-8.016581-3.575432-8.92323-2.641153-8.519024-2.446725-10.578939-0.774643-0.385787h-0.738827l-0.385786-0.7552h-0.90358l-1.51347 0.7552-0.772596 0.385787-1.031492 1.787716-0.385787 2.160199-0.771573 1.915629-1.35588 3.172249-4.379751 7.776104-2.251274 4.719488-3.575431 4.072759-3.832282 4.943592-4.188392 5.490038-4.445243 4.848425-5.216815 4.702092-4.860704 4.442172-5.313006 3.462868-5.863544 3.686972-5.602602 2.1602-6.634094 1.658779-6.504134 0.626263H107.288538l-1.480724-0.626263-1.161452-2.562359-1.932002-1.25662-2.512217-6.117324-1.544169-3.317559-1.675152-4.719488-1.385557-4.943592-0.741897-4.844332-2.060939-11.080359-0.771572-6.503111v-21.386076l0.771572-15.908319 1.289366-8.148587 1.51347-8.405437 1.385557-9.032724 2.446725-8.40646 2.77009-9.691733 2.832511-9.405207 3.802606-9.691733 3.574409-9.293667 4.927219-9.418511 4.6366-10.17678 5.602602-9.546423 6.602371-10.32209 6.731309-9.293667 7.020903-10.304693 5.860475-7.133468 7.504928-8.277524 7.888667-8.27343 3.673669-3.947915 4.474918-4.458546 6.473435-5.618974 6.635118-5.718235 10.819416-9.676383 8.178263-5.975085z" fill="#75B9EB" p-id="7149"></path><path d="M388.66602 937.042509l-63.125712-0.47993-53.56394-6.848989-13.08911-2.730181-8.671496-2.812045-11.378142-2.830465-26.612101-11.495822-7.734148-4.76349-14.46034-12.362562-5.402033-6.755868-5.636371-10.3006-4.617158-15.943111 2.2963-31.304983 8.366551-20.008706 11.296277-13.118786 11.542894-8.64796 8.413624-3.39226 7.605211-3.579525 3.77293-1.119497-9.749038-9.520841-18.327414-22.076808-2.835581-4.746094-5.202489-7.130398-12.995989-23.606651-4.675486-11.689226-13.007245 15.544021-12.291954 10.844999-14.542204 8.876158-7.699356 2.818185-9.280364 2.115174-11.893888 0.709151-6.386454-2.056845-6.468319-2.747577-1.874696-4.148484-2.226715-1.441838-8.179286-20.178575-2.226715-8.255011-3.785209-25.14161v-21.386076l0.995677-18.719341 4.687765-27.783786 8.566097-29.078269 8.190542-20.729114 15.584954-29.922496 6.972808-10.915608 20.858051-28.452005 25.662472-27.133987 26.365485-22.873964-1.371231-7.710612v-17.020652l6.105045-21.379936 3.832282-9.632382 7.113001-13.839193 1.968841-14.817473 7.441483-22.598694 4.722558-7.886621 0.234337-14.653745 3.245927-21.192671 2.765997-13.10139 4.570086-16.259312 8.823969-23.641443 12.444427-27.010167 5.976108-10.844999 25.358551-37.322024 16.909111-20.466124 18.843161-19.574824 19.440771-17.577331 9.445116-7.39441 9.726525-6.661724 22.007224-12.596899 10.311856-4.206812 12.151761-5.677302 34.896788-11.33107 11.730159-2.800789 26.154683-4.587482 26.530237-3.538593 13.147438-0.743943 40.990576-0.029676 42.267663 5.085832 52.708455 13.001105 12.233626 4.329609 26.295899 11.073196 11.425214 5.730515 11.952217 6.814196 31.861661 21.778002 8.695033 7.394411 15.795755 15.608489 8.76564 10.042727 5.496178 7.394411 8.589632 10.599405 20.143783 35.014469 11.085476 25.668612 8.706289 26.442232 8.507768 31.855522 2.542916 12.867052 5.214768 36.947494 15.515369 27.250644 3.937682 9.579169 6.949272 29.084409 0.960885 13.997806-0.644683 4.329608-0.527003 8.366552-5.964852 20.893866 20.471241 29.79356 3.925402 7.77508 6.281054 10.135848 27.525913 56.616462 3.550873 8.583492 11.354605 36.296671 2.835582 15.152095 4.101411 32.58207-0.199545 22.012339-5.26184 32.347732-5.097088 15.60235-9.151428 16.229636-13.979386 14.471597-15.198143 6.204305h-9.292644l-7.382131-2.63092-12.42089-7.804757-5.296633-5.015223-5.436826-6.081509-5.730515-7.827269-4.933359-7.910157-0.081865 0.245594-8.706289 20.565384-18.093077 28.662807-11.495821 15.620769 7.358595 3.527336 20.905122 11.981893 9.831926 7.218402 13.8044 11.799743 7.523348 9.995655 3.703345 7.06593 3.726881 10.967795 2.109034 11.82942-2.812045 14.624069-6.222725 11.82328-16.323781 18.73162-7.721869 5.513574-14.436803 7.66968-17.624403 7.423063-10.264785 3.110851-31.182186 6.88992-14.049994 2.168386-10.792811 0.468674-13.183253 1.446955H700.17066l-27.045983-1.974981-42.689264-5.560646-13.323447-3.321652-13.593599-2.701528-12.936637-3.684926-43.732014-14.700816-10.347672-0.047072-19.628037-1.622964-1.74576 1.207501-8.788154 5.367241-28.439725 14.44806-23.705912 9.251712-17.635659 4.540409-13.757328 2.554173-34.135449 2.631943z m-60.231802-36.367279l59.505255 0.369414 30.877241-2.41398 25.382087-5.917779 25.967418-10.851139 24.53786-13.299911 10.053983-9.069563 54.208623 5.220908 15.948227 5.659907 12.549827 3.796466 14.07353 4.980431 11.085476 3.123131 12.291954 2.401699 13.288654 3.28686 50.505278 6.02318 12.491499 0.709151 34.299177-0.029675 11.999288-1.382487 10.429537-0.451278 29.518291-5.788843 16.674774-4.411473 14.002922-5.941316 11.378142-6.040577 4.827958-3.790326 8.120958-10.241248 1.511424-3.673669-0.081865-6.216586-3.058662-7.166213-3.093455-4.090155-17.659195-13.886265-17.108656-9.737782-28.721135-14.647605-16.616446-16.668634 29.810956-30.754445 12.867052-18.972097 10.089799-16.306384 21.666462-52.315506 10.722203-7.904017h10.709922l9.655918 5.015224 3.082198 5.079692 12.854772 24.883736 17.588587 22.469758 1.65264-1.792833 6.550183-9.339715 2.109034-5.52483 2.964518-9.086959 1.851161-9.597589 2.179642-21.051455v-12.614296l-3.609201-27.695782-2.554172-13.563924-9.819646-31.15251-6.585999-15.374153-22.604834-45.578058-6.222725-10.013051-3.691065-7.312546-24.713868-36.876886-1.933026-3.826141v-8.641821l5.554506-14.137999 2.624781-11.184736 0.152472-14.507412-5.812379-24.069186-2.13257-4.915962-16.885576-28.843932-1.207501-5.666047-7.78122-50.27708-15.62077-53.054333-10.124591-23.325242-18.057261-31.100322-6.573719-7.76894-5.423523-7.302313-13.241582-14.232143-13.628392-12.397354-5.847172-3.744278-3.609201-3.082198-19.041682-12.684904-10.253528-5.835915-9.984398-4.974291-23.740704-9.995655-10.522658-3.691066-24.795732-6.545066-23.811312-5.354962-37.334303-4.37054H517.449106l-11.401678 0.673335-36.021402 5.197372-22.158672 4.692883-31.603789 10.324136-9.890254 4.728698-10.241249 4.212951-17.237592 9.995655-7.933693 5.43171-14.084787 11.66569-10.885931 10.006912-17.342994 18.039865-14.729469 17.835203-23.905456 35.277458-8.202823 15.515369-15.315824 38.359656-3.574408 12.860912-2.366907 11.360746-2.835582 18.761295v23.987321l-8.823969 10.874675-0.750084 1.693572-3.679809 13.142321-0.98442 12.989849v5.700839l-7.721869 10.967796-2.74246 5.466502-4.195556 11.689226-2.285043 8.688893 0.352018 11.378142 2.566452 10.317996 3.99601 12.263302-20.85805 15.473413-30.221302 27.66099-20.002566 22.211884-19.628036 28.843932-4.76963 8.144494-15.913435 36.167734-7.452739 25.511024-3.878331 23.536042-0.726547 14.935154 0.023536 19.445888 0.644683 5.442965 5.305842 22.25691 3.503801-1.277086 8.214079-5.255701 11.764951-11.28502 11.988032-16.49365 4.851495-9.363251 0.550539-3.082199 5.331425-9.262967 10.898211-5.408174H188.343599l2.648316 4.394077 3.972475 1.927909 2.718925 8.770758 4.523013 17.114796 9.3039 22.715351 4.862751 7.721868 5.952572 11.782348 7.405667 10.857279 15.186888 17.987676 13.546527 12.474103 15.479553 12.362562 4.253884 1.980097 7.441482 10.317997v14.161534l-11.401677 10.517541-30.490432 4.282537-10.335392 3.626597-13.218047 7.388271-6.02318 8.419763-2.156106 6.480598-1.324158 19.077498 2.413979 7.441482 3.292999 4.470825 3.996011 3.955079 9.737782 6.450922 20.846794 8.817829 9.585309 2.261507 8.43716 2.736321 28.873607 4.739954 10.675131 1.500167 19.884886 2.015913z" fill="#885F44" p-id="7150"></path></svg>