<?xml version="1.0" standalone="no"?><!DOCTYPE svg PUBLIC "-//W3C//DTD SVG 1.1//EN" "http://www.w3.org/Graphics/SVG/1.1/DTD/svg11.dtd"><svg t="1598842312987" class="icon" viewBox="0 0 1024 1024" version="1.1" xmlns="http://www.w3.org/2000/svg" p-id="45464" xmlns:xlink="http://www.w3.org/1999/xlink" width="128" height="128"><defs><style type="text/css"></style></defs><path d="M792.35 835.94l-128.09-30.32c-17.73-4.2-36.12 3.66-45.34 19.37l-66.64 113.52c-15.83 26.97-54.67 27.4-71.1 0.79l-69.14-112.02c-9.57-15.5-28.13-22.95-45.76-18.36l-127.39 33.15c-30.26 7.88-58.03-19.29-50.83-49.72l30.32-128.09c4.2-17.73-3.66-36.12-19.37-45.34L85.49 552.28c-26.97-15.83-27.4-54.67-0.79-71.1l112.02-69.14c15.5-9.57 22.95-28.13 18.36-45.76l-33.15-127.39c-7.88-30.26 19.29-58.03 49.72-50.83l128.09 30.32c17.73 4.2 36.12-3.66 45.34-19.37l66.64-113.52c15.83-26.97 54.67-27.4 71.1-0.79l69.14 112.02c9.57 15.5 28.13 22.95 45.76 18.36l127.39-33.15c30.26-7.88 58.03 19.29 50.83 49.72l-30.32 128.09c-4.2 17.73 3.66 36.12 19.37 45.34l113.52 66.64c26.97 15.83 27.4 54.67 0.79 71.1l-112.02 69.14c-15.5 9.57-22.95 28.13-18.36 45.76l33.15 127.39c7.88 30.26-19.29 58.03-49.72 50.83z" fill="#FF7938" p-id="45465"></path><path d="M512 512m-207.66 0a207.66 207.66 0 1 0 415.32 0 207.66 207.66 0 1 0-415.32 0Z" fill="#F7FF53" p-id="45466"></path><path d="M442.78 468.74m-25.96 0a25.96 25.96 0 1 0 51.92 0 25.96 25.96 0 1 0-51.92 0Z" p-id="45467"></path><path d="M581.22 468.74m-25.96 0a25.96 25.96 0 1 0 51.92 0 25.96 25.96 0 1 0-51.92 0Z" p-id="45468"></path><path d="M442.78 582.02s17.31 48.31 69.22 48.31 69.22-48.31 69.22-48.31H442.78z" fill="#FF2929" p-id="45469"></path></svg>