<?xml version="1.0" standalone="no"?><!DOCTYPE svg PUBLIC "-//W3C//DTD SVG 1.1//EN" "http://www.w3.org/Graphics/SVG/1.1/DTD/svg11.dtd"><svg t="1654928617651" class="icon" viewBox="0 0 1024 1024" version="1.1" xmlns="http://www.w3.org/2000/svg" p-id="21218" xmlns:xlink="http://www.w3.org/1999/xlink" width="128" height="128"><defs><style type="text/css">@font-face { font-family: element-icons; src: url("chrome-extension://moombeodfomdpjnpocobemoiaemednkg/fonts/element-icons.woff") format("woff"), url("chrome-extension://moombeodfomdpjnpocobemoiaemednkg/fonts/element-icons.ttf ") format("truetype"); }
@font-face { font-family: feedback-iconfont; src: url("//at.alicdn.com/t/font_1031158_u69w8yhxdu.woff2?t=1630033759944") format("woff2"), url("//at.alicdn.com/t/font_1031158_u69w8yhxdu.woff?t=1630033759944") format("woff"), url("//at.alicdn.com/t/font_1031158_u69w8yhxdu.ttf?t=1630033759944") format("truetype"); }
</style></defs><path d="M191.6 83.4c-47.4 22.4-85.8 60.8-108.2 108.2L191.6 83.4z" fill="#4ADF9E" p-id="21219"></path><path d="M228.8 69.7C151.6 90.5 90.5 151.6 69.7 228.8L228.8 69.7z" fill="#49DF9E" p-id="21220"></path><path d="M258.2 63.9c-100.8 13-181.3 93.5-194.4 194.4L258.2 63.9z" fill="#48DF9F" p-id="21221"></path><path d="M283.6 62C162.5 63.9 63.9 162.5 62 283.6L283.6 62z" fill="#47E09F" p-id="21222"></path><path d="M307.2 62H287C163.3 62 62 163.3 62 287v20.2L307.2 62z" fill="#46E09F" p-id="21223"></path><path d="M330.7 62H287C163.3 62 62 163.3 62 287v43.7L330.7 62z" fill="#45E09F" p-id="21224"></path><path d="M354.2 62H287C163.3 62 62 163.3 62 287v67.2L354.2 62z" fill="#44E0A0" p-id="21225"></path><path d="M377.8 62H287C163.3 62 62 163.3 62 287v90.8L377.8 62z" fill="#43E0A0" p-id="21226"></path><path d="M401.3 62H287C163.3 62 62 163.3 62 287v114.3L401.3 62z" fill="#42E0A0" p-id="21227"></path><path d="M424.9 62H287C163.3 62 62 163.3 62 287v137.9L424.9 62z" fill="#41E0A0" p-id="21228"></path><path d="M448.4 62H287c-39.8 0-77.3 10.5-109.8 28.8l-86.4 86.4C72.5 209.7 62 247.2 62 287v161.4L448.4 62z" fill="#40E1A1" p-id="21229"></path><path d="M472 62H287c-23.7 0-46.5 3.7-68 10.6L72.6 219C65.7 240.5 62 263.3 62 287v185L472 62z" fill="#3FE1A1" p-id="21230"></path><path d="M495.5 62H287c-12.6 0-24.9 1.1-37 3.1l-185 185c-2 12-3.1 24.4-3.1 37v208.5L495.5 62z" fill="#3EE1A1" p-id="21231"></path><path d="M519.1 62H287c-3.6 0-7.1 0.1-10.6 0.3L62.3 276.4c-0.2 3.5-0.3 7-0.3 10.6v232.1L519.1 62z" fill="#3DE1A1" p-id="21232"></path><path d="M62 542.6L542.6 62H300.2L62 300.2z" fill="#3CE1A2" p-id="21233"></path><path d="M62 566.2L566.2 62H323.8L62 323.8z" fill="#3BE1A2" p-id="21234"></path><path d="M62 589.7L589.7 62H347.3L62 347.3z" fill="#3AE1A2" p-id="21235"></path><path d="M62 613.3L613.3 62H370.8L62 370.8z" fill="#39E2A2" p-id="21236"></path><path d="M62 636.8L636.8 62H394.4L62 394.4z" fill="#38E2A3" p-id="21237"></path><path d="M62 417.9v242.5L660.4 62H417.9z" fill="#37E2A3" p-id="21238"></path><path d="M62 441.5v242.4L683.9 62H441.5z" fill="#36E2A3" p-id="21239"></path><path d="M62 465v242.5L707.5 62H465z" fill="#35E2A3" p-id="21240"></path><path d="M62 488.6V731L731 62H488.6z" fill="#34E2A3" p-id="21241"></path><path d="M737 62H512.1L62 512.1V737c0 5.7 0.2 11.3 0.6 16.9L753.9 62.6c-5.6-0.4-11.2-0.6-16.9-0.6z" fill="#33E2A4" p-id="21242"></path><path d="M737 62H535.7L62 535.7V737c0 12.9 1.1 25.5 3.2 37.9L774.9 65.2c-12.4-2.1-25-3.2-37.9-3.2z" fill="#32E3A4" p-id="21243"></path><path d="M737 62H559.2L62 559.2V737c0 19.8 2.6 38.9 7.4 57.2L794.2 69.4C775.9 64.6 756.8 62 737 62z" fill="#31E3A4" p-id="21244"></path><path d="M737 62H582.8L62 582.8V737c0 26.3 4.6 51.6 13 75.2L812.2 75c-23.6-8.4-48.9-13-75.2-13z" fill="#30E3A4" p-id="21245"></path><path d="M737 62H606.3L62 606.3V737c0 32.7 7.1 63.8 19.8 92L829 81.8C800.8 69.1 769.7 62 737 62z" fill="#2FE3A5" p-id="21246"></path><path d="M844.7 89.6C812.6 72 775.9 62 737 62H629.9L62 629.9V737c0 38.9 10 75.6 27.6 107.7L844.7 89.6z" fill="#2EE3A5" p-id="21247"></path><path d="M859.4 98.5C824.1 75.4 782 62 737 62h-83.6L62 653.4V737c0 45 13.4 87.1 36.5 122.4L859.4 98.5z" fill="#2DE3A5" p-id="21248"></path><path d="M873.2 108.2C835.3 79.3 788.1 62 737 62h-60L62 677v60c0 51.1 17.3 98.3 46.2 136.2l765-765z" fill="#2CE3A5" p-id="21249"></path><path d="M886.1 118.8C846.3 83.5 794 62 737 62h-36.5L62 700.5V737c0 57 21.5 109.3 56.8 149.1l767.3-767.3z" fill="#2BE4A6" p-id="21250"></path><path d="M737 62h-12.9L62 724.1V737c0 63 26.3 120.2 68.4 161.1l767.8-767.8C857.2 88.3 800 62 737 62z" fill="#2AE4A6" p-id="21251"></path><path d="M62.2 747.4c3 64.8 33.7 122.7 80.5 161.9l766.6-766.6C870 95.9 812.2 65.2 747.4 62.2L62.2 747.4z" fill="#29E4A6" p-id="21252"></path><path d="M64.3 768.9c8.9 61.8 43.1 115.7 91.7 150.7L919.6 156c-35-48.6-88.9-82.8-150.7-91.7L64.3 768.9z" fill="#28E4A6" p-id="21253"></path><path d="M68 788.7c14 59.1 51.5 109.4 102.1 140.4l758.9-759c-30.9-50.5-81.2-88-140.4-102.1L68 788.7z" fill="#27E4A7" p-id="21254"></path><path d="M73.2 807c18.7 56.7 59.4 103.6 111.9 130.5l752.3-752.3c-26.8-52.5-73.7-93.3-130.4-112L73.2 807z" fill="#26E4A7" p-id="21255"></path><path d="M79.7 824.1c23.1 54.4 67 98.1 121.6 120.8l743.6-743.6c-22.7-54.6-66.3-98.6-120.8-121.6L79.7 824.1z" fill="#25E5A7" p-id="21256"></path><path d="M87.2 840.1c27.2 52.3 74.4 92.8 131.3 111.1l732.8-732.8C933 161.5 892.5 114.3 840.2 87.1l-753 753z" fill="#25E5A7" p-id="21257"></path><path d="M95.8 855.1c31.3 50.3 81.9 87.6 141.2 101.2L956.3 237c-13.6-59.4-50.8-110-101.2-141.2L95.8 855.1z" fill="#24E5A7" p-id="21258"></path><path d="M256.9 960L960 256.9c-8.4-62-42.3-116.3-90.8-151.6l-764 764c35.4 48.3 89.6 82.3 151.7 90.7z" fill="#23E5A8" p-id="21259"></path><path d="M278.6 961.8l683.3-683.3c-2.4-65.1-32.8-123.3-79.5-162.9L115.6 882.4c39.7 46.6 97.9 77 163 79.4z" fill="#22E5A8" p-id="21260"></path><path d="M962 287c0-62.5-25.8-119.3-67.3-160.1L126.9 894.7C167.7 936.2 224.5 962 287 962h14.9L962 301.9V287z" fill="#21E5A8" p-id="21261"></path><path d="M962 287c0-56.5-21.1-108.4-55.9-148L139 906.1c39.6 34.8 91.5 55.9 148 55.9h38.5L962 325.5V287z" fill="#20E5A8" p-id="21262"></path><path d="M962 287c0-50.6-16.9-97.4-45.3-135L152 916.7c37.7 28.4 84.5 45.3 135 45.3h62l613-613v-62z" fill="#1FE6A9" p-id="21263"></path><path d="M962 287c0-44.5-13.1-86.1-35.7-121.2L165.8 926.3c35 22.5 76.6 35.7 121.2 35.7h85.6L962 372.6V287z" fill="#1EE6A9" p-id="21264"></path><path d="M962 287c0-38.4-9.8-74.6-26.9-106.4L180.6 935.1c31.7 17.2 68 26.9 106.4 26.9h109.1L962 396.1V287z" fill="#1DE6A9" p-id="21265"></path><path d="M287 962h132.7L962 419.7V287c0-32.2-6.9-62.8-19.2-90.6L196.4 942.8c27.8 12.3 58.4 19.2 90.6 19.2z" fill="#1CE6A9" p-id="21266"></path><path d="M287 962h156.2L962 443.2V287c0-25.8-4.4-50.6-12.5-73.7L213.3 949.5c23.1 8.1 47.9 12.5 73.7 12.5z" fill="#1BE6AA" p-id="21267"></path><path d="M287 962h179.8L962 466.8V287c0-19.2-2.4-37.8-7-55.6L231.4 955c17.8 4.6 36.4 7 55.6 7z" fill="#1AE6AA" p-id="21268"></path><path d="M287 962h203.3L962 490.3V287c0-12.3-1-24.4-2.9-36.2L250.8 959.1c11.8 1.9 23.9 2.9 36.2 2.9z" fill="#19E6AA" p-id="21269"></path><path d="M287 962h226.9L962 513.9V287c0-5.1-0.2-10.1-0.5-15L272 961.5c4.9 0.3 9.9 0.5 15 0.5z" fill="#18E7AA" p-id="21270"></path><path d="M537.4 962L962 537.4V295L295 962z" fill="#17E7AB" p-id="21271"></path><path d="M561 962l401-401V318.5L318.5 962z" fill="#16E7AB" p-id="21272"></path><path d="M584.5 962L962 584.5V342.1L342.1 962z" fill="#15E7AB" p-id="21273"></path><path d="M608.1 962L962 608.1V365.6L365.6 962z" fill="#14E7AB" p-id="21274"></path><path d="M631.6 962L962 631.6V389.2L389.2 962z" fill="#13E7AB" p-id="21275"></path><path d="M655.2 962L962 655.2V412.7L412.7 962z" fill="#12E7AC" p-id="21276"></path><path d="M678.7 962L962 678.7V436.3L436.3 962z" fill="#11E8AC" p-id="21277"></path><path d="M702.2 962L962 702.2V459.8L459.8 962z" fill="#10E8AC" p-id="21278"></path><path d="M725.8 962L962 725.8V483.4L483.4 962z" fill="#0FE8AC" p-id="21279"></path><path d="M962 737V506.9L506.9 962H737c4.3 0 8.5-0.1 12.7-0.4l211.9-211.9c0.3-4.2 0.4-8.4 0.4-12.7z" fill="#0EE8AD" p-id="21280"></path><path d="M962 737V530.5L530.5 962H737c13.4 0 26.6-1.2 39.4-3.5l182.2-182.2c2.2-12.7 3.4-25.9 3.4-39.3z" fill="#0DE8AD" p-id="21281"></path><path d="M962 737V554L554 962h183c24.8 0 48.6-4.1 71-11.6L950.4 808c7.5-22.4 11.6-46.2 11.6-71z" fill="#0CE8AD" p-id="21282"></path><path d="M962 737V577.6L577.6 962H737c41.8 0 80.9-11.5 114.6-31.6l78.9-78.9c20-33.6 31.5-72.7 31.5-114.5z" fill="#0BE8AD" p-id="21283"></path><path d="M962 601.1L601.1 962H737c123.8 0 225-101.3 225-225V601.1z" fill="#0AE9AE" p-id="21284"></path><path d="M962 624.7L624.7 962H737c123.8 0 225-101.3 225-225V624.7z" fill="#09E9AE" p-id="21285"></path><path d="M962 648.2L648.2 962H737c123.8 0 225-101.3 225-225v-88.8z" fill="#08E9AE" p-id="21286"></path><path d="M962 671.8L671.8 962H737c123.8 0 225-101.3 225-225v-65.2z" fill="#07E9AE" p-id="21287"></path><path d="M962 695.3L695.3 962H737c123.8 0 225-101.3 225-225v-41.7z" fill="#06E9AF" p-id="21288"></path><path d="M962 718.8L718.8 962H737c123.8 0 225-101.3 225-225v-18.2z" fill="#05E9AF" p-id="21289"></path><path d="M961.9 742.5L742.5 961.9c119.4-2.9 216.5-100 219.4-219.4z" fill="#04E9AF" p-id="21290"></path><path d="M959.8 768.1L768.1 959.8c99-13.8 177.9-92.7 191.7-191.7z" fill="#03EAAF" p-id="21291"></path><path d="M953.6 797.9L797.9 953.6c75-21.3 134.4-80.7 155.7-155.7z" fill="#02EAB0" p-id="21292"></path><path d="M938.7 836.3L836.3 938.7c44.3-21.9 80.5-58.1 102.4-102.4z" fill="#01EAB0" p-id="21293"></path><path d="M682.5 737.1H340.2c-19.8 0-35.9-16.1-35.9-35.9V323c0-19.8 16.1-35.9 35.9-35.9H550c4.4 0 8.7 1.6 12 4.6l150.3 143.1c3.8 3.4 6 8.3 6 13.4v253.1c0 19.8-16 35.8-35.8 35.8z" fill="#CAF6E1" p-id="21294"></path><path d="M628.3 656.1h-234c-9.9 0-18-8.1-18-18s8.1-18 18-18h234c9.9 0 18 8.1 18 18s-8.1 18-18 18zM456.5 539.8l13.1-87.3c0.5-3.5 2.2-6.8 4.7-9.3L621 296.4c13.3-13.3 35.6-12.6 49.6 1.4l38.2 38.2c14 14 14.6 36.3 1.4 49.6L563.4 532.3c-2.5 2.5-5.8 4.2-9.3 4.7l-87.4 13c-6 0.9-11.1-4.2-10.2-10.2z" fill="#F6FDFA" p-id="21295"></path></svg>