<?xml version="1.0" standalone="no"?><!DOCTYPE svg PUBLIC "-//W3C//DTD SVG 1.1//EN" "http://www.w3.org/Graphics/SVG/1.1/DTD/svg11.dtd"><svg t="1654944937919" class="icon" viewBox="0 0 1024 1024" version="1.1" xmlns="http://www.w3.org/2000/svg" p-id="39232" xmlns:xlink="http://www.w3.org/1999/xlink" width="128" height="128"><defs><style type="text/css">@font-face { font-family: element-icons; src: url("chrome-extension://moombeodfomdpjnpocobemoiaemednkg/fonts/element-icons.woff") format("woff"), url("chrome-extension://moombeodfomdpjnpocobemoiaemednkg/fonts/element-icons.ttf ") format("truetype"); }
@font-face { font-family: feedback-iconfont; src: url("//at.alicdn.com/t/font_1031158_u69w8yhxdu.woff2?t=1630033759944") format("woff2"), url("//at.alicdn.com/t/font_1031158_u69w8yhxdu.woff?t=1630033759944") format("woff"), url("//at.alicdn.com/t/font_1031158_u69w8yhxdu.ttf?t=1630033759944") format("truetype"); }
</style></defs><path d="M102.4 102.4m307.2 0l204.8 0q307.2 0 307.2 307.2l0 204.8q0 307.2-307.2 307.2l-204.8 0q-307.2 0-307.2-307.2l0-204.8q0-307.2 307.2-307.2Z" fill="#FFB3B3" p-id="39233"></path><path d="M512 486.4c110.2848 0 199.68 89.14944 199.68 199.1168 0 109.9776-399.36 109.9776-399.36 0C312.32 575.55456 401.7152 486.4 512 486.4z m-2.56-230.4C573.06112 256 624.64 307.57888 624.64 371.2S573.06112 486.4 509.44 486.4 394.24 434.82112 394.24 371.2 445.81888 256 509.44 256z" fill="#FFFFFF" fill-opacity=".7" p-id="39234"></path><path d="M468.3776 406.9632a8.3968 8.3968 0 0 1 11.90912-0.01536c21.89312 21.9392 41.66656 21.9392 63.4112 0.02048a8.3968 8.3968 0 0 1 11.904-0.02048c3.29728 3.29216 3.30752 8.6528 0.0256 11.9552-28.3136 28.55424-58.75712 28.55424-87.23456 0.02048a8.48384 8.48384 0 0 1-0.01536-11.96032z" fill="#FFB3B3" p-id="39235"></path></svg>