<?xml version="1.0" standalone="no"?><!DOCTYPE svg PUBLIC "-//W3C//DTD SVG 1.1//EN" "http://www.w3.org/Graphics/SVG/1.1/DTD/svg11.dtd"><svg t="1655445013946" class="icon" viewBox="0 0 1024 1024" version="1.1" xmlns="http://www.w3.org/2000/svg" p-id="6936" xmlns:xlink="http://www.w3.org/1999/xlink" width="128" height="128"><defs><style type="text/css">@font-face { font-family: element-icons; src: url("chrome-extension://moombeodfomdpjnpocobemoiaemednkg/fonts/element-icons.woff") format("woff"), url("chrome-extension://moombeodfomdpjnpocobemoiaemednkg/fonts/element-icons.ttf ") format("truetype"); }
@font-face { font-family: feedback-iconfont; src: url("//at.alicdn.com/t/font_1031158_u69w8yhxdu.woff2?t=1630033759944") format("woff2"), url("//at.alicdn.com/t/font_1031158_u69w8yhxdu.woff?t=1630033759944") format("woff"), url("//at.alicdn.com/t/font_1031158_u69w8yhxdu.ttf?t=1630033759944") format("truetype"); }
</style></defs><path d="M512 64.1c126.093 55.826 252.187 94.373 378.28 115.64v335.323c0 120.621-60.395 233.23-160.874 299.958L512 959.4 294.594 815.02C194.114 748.293 133.72 635.684 133.72 515.063V179.741C259.813 158.473 385.907 119.926 512 64.1z" fill="#C5C5C5" fill-opacity=".5" p-id="6937"></path><path d="M367.714 486.878c-15.865 18.1-25.373 41.91-25.373 68.3 0 57.884 45.75 103.364 103.977 103.364 26.053 0 49.61-9.106 67.686-24.354v323.88L512 959.4 294.594 815.02C194.114 748.293 133.72 635.684 133.72 515.063v-28.185h233.994z m78.604 6.28c35.352 0 62.386 26.876 62.386 62.02 0 35.143-27.034 62.018-62.386 62.018-33.273 0-62.386-26.875-62.386-62.018 0-35.144 27.034-62.02 62.386-62.02zM512 64.102c126.093 55.825 252.187 94.372 378.28 115.64v309.231H546.192l110.16-109.514-51.989-51.682-29.114 28.942 22.875 22.74-14.556 14.471-22.875-22.74-29.114 28.942 22.875 22.74-42.552 42.294V64.144l0.098-0.043z" fill="#ABABAB" fill-opacity=".45" p-id="6938"></path><path d="M535.738 499.36c10.398 16.54 14.557 35.145 14.557 55.818 0 57.884-45.75 103.364-103.977 103.364-58.227 0-103.977-45.48-103.977-103.364 0-57.885 45.75-103.365 103.977-103.365 22.875 0 41.59 6.202 60.307 18.606l47.829-47.548-22.875-22.74 29.114-28.942 22.875 22.74 14.556-14.471-22.875-22.74 29.114-28.942 51.989 51.682L535.738 499.36z m-89.42 117.836c35.352 0 62.386-26.875 62.386-62.018 0-35.144-27.034-62.02-62.386-62.02-35.352 0-62.386 26.876-62.386 62.02 0 35.143 29.113 62.018 62.386 62.018z" fill="#000000" fill-opacity=".302" p-id="6939"></path></svg>