<svg xmlns="http://www.w3.org/2000/svg" xmlns:xlink="http://www.w3.org/1999/xlink" width="500" zoomAndPan="magnify" viewBox="0 0 375 374.999991" height="500" preserveAspectRatio="xMidYMid meet" version="1.0"><rect x="-37.5" width="450" fill="#ffffff" y="-37.499999" height="449.999989" fill-opacity="1"/><rect x="-37.5" width="450" fill="#ffffff" y="-37.499999" height="449.999989" fill-opacity="1"/><rect x="-37.5" width="450" fill="#ffffff" y="-37.499999" height="449.999989" fill-opacity="1"/><path fill="#8c52ff" d="M 255.953125 111.132812 C 236.402344 117.53125 226.1875 117.855469 225.632812 96.765625 C 225.558594 93.445312 225.285156 90.144531 224.8125 86.859375 C 223.945312 80.832031 221.09375 76.027344 216.253906 72.441406 C 213.382812 70.328125 209.699219 68.867188 205.199219 68.054688 C 202.871094 67.640625 198.96875 67.25 193.5 66.882812 C 181.519531 66.058594 170.527344 66.96875 160.527344 69.613281 C 120.878906 80.113281 91.957031 104.242188 73.757812 142.003906 C 70.363281 148.269531 67.773438 154.867188 65.988281 161.800781 C 61.714844 174.90625 60.535156 188.957031 62.453125 203.957031 C 63.132812 209.277344 64.785156 213.664062 67.417969 217.117188 C 67.679688 217.464844 68.101562 217.683594 68.566406 217.710938 C 78.574219 218.277344 88.945312 216.785156 99.679688 213.238281 C 113.992188 208.511719 126.582031 202.960938 137.449219 196.582031 C 154.050781 188.121094 169.972656 178.53125 185.207031 167.816406 L 193.695312 162.269531 L 194.050781 162.15625 L 199.355469 158.730469 L 209.617188 153.425781 C 230.417969 142.433594 245.421875 135.015625 254.628906 131.167969 C 270.957031 124.34375 289.089844 120.191406 309.023438 118.699219 C 314.804688 118.265625 320.140625 118.519531 325.027344 119.464844 C 330.847656 120.578125 335.585938 122.734375 339.246094 125.929688 C 343.265625 129.441406 346.28125 134.105469 348.289062 139.925781 C 377.03125 278.46875 275.28125 385.933594 133.203125 341.214844 C 121.664062 336.839844 105.003906 330.929688 95.972656 324.320312 C 92.058594 321.414062 88.914062 317.253906 86.535156 311.839844 C 83.789062 305.621094 84.128906 299.621094 87.554688 293.839844 C 95.167969 280.972656 104.929688 271.617188 116.847656 265.777344 C 122.78125 262.863281 129.980469 261.832031 138.453125 262.679688 C 141.179688 264.011719 143.058594 265.925781 144.085938 268.425781 C 145.679688 272.332031 146.613281 276.78125 146.886719 281.78125 C 147.179688 287.265625 147.925781 291.507812 149.121094 294.519531 C 151 299.214844 154.683594 302.84375 160.175781 305.398438 C 164.550781 307.429688 170.066406 308.621094 176.714844 308.980469 C 199.933594 310.214844 221.53125 305.726562 241.511719 295.507812 C 249.746094 291.300781 257.601562 286.109375 265.070312 279.929688 C 283.503906 264.664062 296.984375 245.722656 305.511719 223.101562 C 307.910156 216.761719 309.667969 210.507812 310.792969 204.335938 C 311.953125 197.914062 312.601562 191.417969 312.742188 184.851562 C 312.90625 177.371094 311.867188 170.070312 309.632812 162.949219 C 308.773438 160.222656 307 159.050781 304.308594 159.4375 C 303.007812 159.617188 302.308594 159.710938 302.214844 159.722656 C 289.234375 160.730469 276.742188 163.742188 264.730469 168.75 C 254.277344 173.109375 244.121094 178.066406 234.25 183.621094 C 215.054688 194.453125 196.113281 205.710938 177.421875 217.398438 C 170.8125 221.539062 158.203125 228.851562 139.601562 239.332031 C 130.375 243.898438 119.632812 248.144531 107.378906 252.066406 C 90.578125 257.445312 73.007812 259.332031 54.667969 257.726562 C 48.121094 257.152344 42.394531 255.140625 37.492188 251.699219 C 34.6875 249.726562 32.265625 246.933594 30.21875 243.320312 C 28.21875 239.792969 26.699219 236.339844 25.660156 232.964844 C 18.09375 208.332031 17.117188 183.554688 22.730469 158.632812 C 24.710938 149.8125 27.621094 140.851562 31.460938 131.746094 C 43.199219 103.890625 60.945312 80.640625 84.710938 62 C 92.097656 56.207031 99.949219 51.019531 108.269531 46.433594 C 151.230469 22.738281 196.890625 19.320312 245.246094 36.1875 C 255.90625 39.90625 265.929688 44.894531 275.316406 51.160156 C 279.117188 53.699219 282.71875 57.078125 286.113281 61.304688 C 302.519531 87.054688 264.179688 107.253906 255.953125 111.132812 Z M 255.953125 111.132812 " fill-opacity="1" fill-rule="nonzero"/><path fill="#8c52ff" d="M 171.410156 144.46875 C 162.710938 155.195312 152.789062 164.644531 141.636719 172.824219 C 128.941406 181.457031 115.363281 188.367188 100.914062 193.554688 C 97.949219 194.621094 94.914062 195.375 91.800781 195.820312 C 91.648438 195.84375 91.5 195.828125 91.351562 195.777344 C 91.207031 195.726562 91.082031 195.644531 90.980469 195.53125 C 90.875 195.417969 90.804688 195.285156 90.765625 195.136719 C 90.730469 194.984375 90.730469 194.835938 90.765625 194.6875 C 95.097656 177.574219 102.230469 161.710938 112.164062 147.097656 C 132.519531 117.121094 159.617188 95.535156 193.457031 82.347656 C 194.75 81.835938 195.101562 82.214844 194.515625 83.480469 C 193.742188 85.160156 193.242188 87.101562 193.015625 89.308594 C 191 109.75 183.796875 128.136719 171.410156 144.46875 Z M 171.410156 144.46875 " fill-opacity="1" fill-rule="nonzero"/><path fill="#8c52ff" d="M 211.300781 224.742188 C 215.394531 220.148438 219.398438 216.265625 223.3125 213.097656 C 240.8125 198.957031 260.332031 188.46875 281.867188 181.640625 C 283.054688 181.261719 283.515625 181.683594 283.242188 182.898438 C 281.503906 190.710938 279.121094 198.257812 276.09375 205.539062 C 273.273438 212.332031 269.523438 219.257812 264.84375 226.3125 C 243.921875 257.914062 215.296875 280.519531 178.964844 294.121094 C 178.832031 294.171875 178.691406 294.191406 178.546875 294.171875 C 178.402344 294.152344 178.273438 294.101562 178.152344 294.015625 C 178.035156 293.929688 177.941406 293.820312 177.875 293.691406 C 177.808594 293.558594 177.777344 293.421875 177.777344 293.273438 C 177.835938 290.386719 178.285156 287.613281 179.136719 284.953125 C 180.011719 282.199219 180.464844 280.773438 180.496094 280.679688 C 186.390625 259.800781 196.660156 241.15625 211.300781 224.742188 Z M 211.300781 224.742188 " fill-opacity="1" fill-rule="nonzero"/></svg>