<?xml version="1.0" encoding="UTF-8" standalone="no"?>
<svg
   t="1655514027739"
   class="icon"
   viewBox="0 0 872.55042 872.55042"
   version="1.1"
   p-id="2739"
   width="109.0688"
   height="109.0688"
   id="svg874"
   sodipodi:docname="favicon.svg"
   inkscape:version="1.1 (c68e22c387, 2021-05-23)"
   xmlns:inkscape="http://www.inkscape.org/namespaces/inkscape"
   xmlns:sodipodi="http://sodipodi.sourceforge.net/DTD/sodipodi-0.dtd"
   xmlns="http://www.w3.org/2000/svg"
   xmlns:svg="http://www.w3.org/2000/svg">
  <sodipodi:namedview
     id="namedview876"
     pagecolor="#ffffff"
     bordercolor="#666666"
     borderopacity="1.0"
     inkscape:pageshadow="2"
     inkscape:pageopacity="0.0"
     inkscape:pagecheckerboard="0"
     showgrid="false"
     fit-margin-top="0"
     fit-margin-left="0"
     fit-margin-right="0"
     fit-margin-bottom="0"
     inkscape:zoom="9.3203125"
     inkscape:cx="54.665549"
     inkscape:cy="63.14166"
     inkscape:window-width="2560"
     inkscape:window-height="1411"
     inkscape:window-x="-9"
     inkscape:window-y="-9"
     inkscape:window-maximized="1"
     inkscape:current-layer="svg874" />
  <defs
     id="defs858">
    <style
       type="text/css"
       id="style856">@font-face { font-family: element-icons; src: url(&quot;chrome-extension://moombeodfomdpjnpocobemoiaemednkg/fonts/element-icons.woff&quot;) format(&quot;woff&quot;), url(&quot;chrome-extension://moombeodfomdpjnpocobemoiaemednkg/fonts/element-icons.ttf &quot;) format(&quot;truetype&quot;); }
@font-face { font-family: feedback-iconfont; src: url(&quot;//at.alicdn.com/t/font_1031158_u69w8yhxdu.woff2?t=1630033759944&quot;) format(&quot;woff2&quot;), url(&quot;//at.alicdn.com/t/font_1031158_u69w8yhxdu.woff?t=1630033759944&quot;) format(&quot;woff&quot;), url(&quot;//at.alicdn.com/t/font_1031158_u69w8yhxdu.ttf?t=1630033759944&quot;) format(&quot;truetype&quot;); }
</style>
  </defs>
  <path
     d="m 436.2752,436.27521 m -436.2752,0 a 436.2752,436.2752 0 1 0 872.5504,0 436.2752,436.2752 0 1 0 -872.5504,0 z"
     fill="#f8d2ff"
     p-id="2740"
     id="path860" />
  <path
     d="m 481.2288,130.45761 191.488,110.5408 c 27.7504,16.0256 44.8512,45.6192 44.8512,77.6704 v 221.1328 c 0,32.0512 -17.1008,61.6448 -44.8512,77.6704 l -191.488,110.5408 a 89.69216,89.69216 0 0 1 -89.7024,0 l -191.488,-110.5408 a 89.68704,89.68704 0 0 1 -44.8512,-77.6704 v -221.1328 c 0,-32.0512 17.1008,-61.6448 44.8512,-77.6704 l 191.488,-110.5408 c 27.7504,-16.0256 61.952,-16.0256 89.7024,0 z"
     fill="#db90f6"
     p-id="2741"
     id="path862" />
  <path
     d="M 685.568,354.30401 468.3776,228.91521 a 64.07168,64.07168 0 0 0 -64,0 l -217.1904,125.3888 a 63.96928,63.96928 0 0 0 -32,55.4496 v 144.896 c 0,22.8864 12.1856,43.9808 32,55.4496 l 217.1904,125.3888 c 19.8144,11.4176 44.1856,11.4176 64,0 L 685.568,610.09921 c 19.8144,-11.4176 32,-32.5632 32,-55.4496 v -144.896 c 0,-22.8864 -12.2368,-44.032 -32,-55.4496 z"
     fill="#d186f7"
     p-id="2742"
     id="path864" />
  <path
     d="M 685.568,460.18561 468.3776,334.79681 a 64.07168,64.07168 0 0 0 -64,0 l -217.1904,125.3888 a 63.96928,63.96928 0 0 0 -32,55.4496 v 39.0144 c 0,22.8864 12.1856,43.9808 32,55.4496 l 217.1904,125.3888 c 19.8144,11.4176 44.1856,11.4176 64,0 L 685.568,610.09921 c 19.8144,-11.4176 32,-32.5632 32,-55.4496 v -39.0144 c 0,-22.8864 -12.2368,-44.032 -32,-55.4496 z"
     fill="#c276f6"
     p-id="2743"
     id="path866" />
  <path
     d="m 468.3776,440.67841 a 64.07168,64.07168 0 0 0 -64,0 l -217.1904,125.3888 a 63.60064,63.60064 0 0 0 -22.528,22.016 c 5.4784,8.96 13.1584,16.5888 22.528,22.016 l 217.1904,125.3888 c 19.8144,11.4176 44.1856,11.4176 64,0 L 685.568,610.09921 c 9.4208,-5.4272 17.0496,-13.056 22.528,-22.016 a 64.02048,64.02048 0 0 0 -22.528,-22.016 z"
     fill="#af64f6"
     p-id="2744"
     id="path868" />
  <path
     d="m 404.3264,546.56001 -163.584,94.4128 163.584,94.4128 c 19.8144,11.4176 44.1856,11.4176 64,0 l 163.584,-94.4128 -163.584,-94.4128 a 64.07168,64.07168 0 0 0 -64,0 z"
     fill="#a25bf4"
     p-id="2745"
     id="path870" />
  <text
     xml:space="preserve"
     style="font-style:normal;font-weight:normal;font-size:320px;line-height:1.25;font-family:sans-serif;fill:#000000;fill-opacity:1;stroke:none;stroke-width:8.0126;stroke-miterlimit:4;stroke-dasharray:none"
     x="191.4099"
     y="516.72089"
     id="text5513"><tspan
       id="tspan5511"
       style="font-style:normal;font-variant:normal;font-weight:normal;font-stretch:normal;font-size:256px;font-family:Dungeon;-inkscape-font-specification:'Dungeon, Normal';font-variant-ligatures:normal;font-variant-caps:normal;font-variant-numeric:normal;font-variant-east-asian:normal;fill:#ffffff;stroke:none;stroke-width:8.0126;stroke-linecap:round;stroke-miterlimit:4;stroke-dasharray:none;stroke-opacity:0"
       x="191.4099"
       y="516.72089"
       sodipodi:role="line">ZTY</tspan></text>
</svg>
