<?xml version="1.0" standalone="no"?><!DOCTYPE svg PUBLIC "-//W3C//DTD SVG 1.1//EN" "http://www.w3.org/Graphics/SVG/1.1/DTD/svg11.dtd"><svg t="1654866631265" class="icon" viewBox="0 0 1024 1024" version="1.1" xmlns="http://www.w3.org/2000/svg" p-id="70119" xmlns:xlink="http://www.w3.org/1999/xlink" width="128" height="128"><defs><style type="text/css">@font-face { font-family: element-icons; src: url("chrome-extension://moombeodfomdpjnpocobemoiaemednkg/fonts/element-icons.woff") format("woff"), url("chrome-extension://moombeodfomdpjnpocobemoiaemednkg/fonts/element-icons.ttf ") format("truetype"); }
@font-face { font-family: feedback-iconfont; src: url("//at.alicdn.com/t/font_1031158_u69w8yhxdu.woff2?t=1630033759944") format("woff2"), url("//at.alicdn.com/t/font_1031158_u69w8yhxdu.woff?t=1630033759944") format("woff"), url("//at.alicdn.com/t/font_1031158_u69w8yhxdu.ttf?t=1630033759944") format("truetype"); }
</style></defs><path d="M510.4128 505.9584m-453.2224 0a453.2224 453.2224 0 1 0 906.4448 0 453.2224 453.2224 0 1 0-906.4448 0Z" fill="#F4566C" p-id="70120"></path><path d="M510.4128 52.736c-250.3168 0-453.2224 202.9056-453.2224 453.2224 0 99.7888 32.256 192 86.8864 266.8544 74.8544 54.6304 167.0656 86.8864 266.8544 86.8864 250.3168 0 453.2224-202.9056 453.2224-453.2224 0-99.7888-32.256-192-86.8864-266.8544C702.3616 84.992 610.1504 52.736 510.4128 52.736z" fill="#F56677" p-id="70121"></path><path d="M754.0224 299.4176c0-72.6016-17.152-141.2096-47.5136-202.0352-59.3408-28.5696-125.8496-44.5952-196.096-44.5952-250.3168 0-453.2224 202.9056-453.2224 453.2224 0 72.6016 17.152 141.2096 47.5136 202.0352 59.3408 28.5696 125.8496 44.5952 196.096 44.5952 250.3168 0 453.2224-202.9056 453.2224-453.2224z" fill="#F67C85" p-id="70122"></path><path d="M57.1904 505.9584c0 38.912 4.9664 76.6464 14.2336 112.64a443.5968 443.5968 0 0 0 114.688 15.0528c245.7088 0 444.928-199.2192 444.928-444.928 0-43.1616-6.2464-84.7872-17.7152-124.2112-33.024-7.68-67.4816-11.776-102.8608-11.776-250.368 0-453.2736 202.9056-453.2736 453.2224z" fill="#F78B90" p-id="70123"></path><path d="M762.9312 310.1696c-6.144-7.68-18.4832-4.9664-20.8384 4.5568-7.4752 30.464-22.8864 61.3888-42.1376 80.7424-7.168 7.2192-19.4048 2.2528-20.1216-7.936-6.7584-93.952-69.7344-231.5264-252.5184-242.0736-8.2944-0.4608-14.4896 7.5776-12.032 15.4624 12.3904 39.5264 34.5088 142.3872-45.7216 202.496-5.0688 3.84-12.1856 2.7648-16.384-2.048-26.0608-30.1056-71.3216-43.4688-95.744-48.7424-8.0384-1.7408-15.36 5.0176-14.2848 13.1584 4.096 32.2048 9.1648 104.8576-21.0944 146.0736-39.7312 54.0672-107.3152 397.8752 315.392 370.432 401.8176-25.9584 331.5712-400.128 225.4848-532.1216z m-412.8256 420.5056a30.57664 30.57664 0 0 1-22.6304 9.9328c-7.424 0-14.8992-2.6624-20.7872-8.0896-90.4192-83.1488-43.52-218.4192-41.472-224.1024a30.6944 30.6944 0 0 1 39.2704-18.5856 30.71488 30.71488 0 0 1 18.6368 39.168c-0.4096 1.2288-35.072 102.912 25.1904 158.3104a30.72512 30.72512 0 0 1 1.792 43.3664z" fill="#F6D2D5" p-id="70124"></path><path d="M427.3152 145.5104c-8.2944-0.4608-14.4896 7.5776-12.032 15.4624 12.3904 39.5264 34.5088 142.3872-45.7216 202.496-5.0688 3.84-12.1856 2.7648-16.384-2.048-26.0608-30.1056-71.3216-43.4688-95.744-48.7424-8.0384-1.7408-15.36 5.0176-14.2848 13.1584 4.096 32.2048 9.1648 104.8576-21.0944 146.0736-13.7728 18.7904-30.9248 72.448-29.7472 133.376l64.4096-64.4096c3.6864-18.5856 7.936-30.8736 8.4992-32.512a30.6944 30.6944 0 0 1 39.2704-18.5856c0.8192 0.3072 1.5872 0.6144 2.3552 0.9728l284.2624-284.2624c-38.656-33.024-91.9552-56.832-163.7888-60.9792z" fill="#FFFFFF" p-id="70125"></path><path d="M306.688 732.5184c-64.512-59.3408-59.0848-145.2032-49.9712-191.5904l-64.4096 64.4096c1.1264 60.1088 20.1216 127.2832 77.7216 175.0016l43.3152-43.3152c-2.4064-1.2288-4.6592-2.6624-6.656-4.5056zM591.104 206.4896L306.8416 490.752a30.73024 30.73024 0 0 1 16.2816 38.1952c-0.4096 1.2288-35.072 102.912 25.1904 158.3104 2.7136 2.4576 4.7104 5.376 6.3488 8.3968l323.6352-323.6352c-7.2704-54.2208-32.7168-119.04-87.1936-165.5296z" fill="#FEF8F8" p-id="70126"></path><path d="M834.7648 468.224c-14.336-63.232-41.6256-120.4736-71.8336-158.0544-6.144-7.68-18.4832-4.9664-20.8384 4.5568-7.4752 30.464-22.8864 61.3888-42.1376 80.7424-7.168 7.2192-19.4048 2.2528-20.1216-7.936-0.3584-5.0176-0.9216-10.24-1.6384-15.5136l-323.6352 323.6352c5.8368 11.1616 4.5056 25.1904-4.5056 34.9696a30.57664 30.57664 0 0 1-22.6304 9.9328c-4.864 0-9.728-1.28-14.1824-3.584l-43.3152 43.3152c41.1136 34.048 101.888 58.2144 189.9008 62.7712l374.9376-374.8352z" fill="#F9E1E3" p-id="70127"></path></svg>