<?xml version="1.0" encoding="UTF-8" standalone="no"?>
<svg
   t="1655514027739"
   class="icon"
   viewBox="0 0 4000 4000"
   version="1.1"
   p-id="2739"
   width="500"
   height="500"
   id="svg874"
   sodipodi:docname="logo1.svg"
   inkscape:version="1.1 (c68e22c387, 2021-05-23)"
   inkscape:export-filename="C:\Users\22515\Desktop\github\grace\public\logo1.png"
   inkscape:export-xdpi="100"
   inkscape:export-ydpi="100"
   xmlns:inkscape="http://www.inkscape.org/namespaces/inkscape"
   xmlns:sodipodi="http://sodipodi.sourceforge.net/DTD/sodipodi-0.dtd"
   xmlns="http://www.w3.org/2000/svg"
   xmlns:svg="http://www.w3.org/2000/svg">
  <sodipodi:namedview
     id="namedview876"
     pagecolor="#ffffff"
     bordercolor="#666666"
     borderopacity="1.0"
     inkscape:pageshadow="2"
     inkscape:pageopacity="0.0"
     inkscape:pagecheckerboard="0"
     showgrid="false"
     fit-margin-top="0"
     fit-margin-left="0"
     fit-margin-right="0"
     fit-margin-bottom="0"
     inkscape:zoom="1.1650391"
     inkscape:cx="148.0637"
     inkscape:cy="164.37217"
     inkscape:window-width="2560"
     inkscape:window-height="1411"
     inkscape:window-x="-9"
     inkscape:window-y="-9"
     inkscape:window-maximized="1"
     inkscape:current-layer="svg874" />
  <defs
     id="defs858">
    <style
       type="text/css"
       id="style856">@font-face { font-family: element-icons; src: url(&quot;chrome-extension://moombeodfomdpjnpocobemoiaemednkg/fonts/element-icons.woff&quot;) format(&quot;woff&quot;), url(&quot;chrome-extension://moombeodfomdpjnpocobemoiaemednkg/fonts/element-icons.ttf &quot;) format(&quot;truetype&quot;); }
@font-face { font-family: feedback-iconfont; src: url(&quot;//at.alicdn.com/t/font_1031158_u69w8yhxdu.woff2?t=1630033759944&quot;) format(&quot;woff2&quot;), url(&quot;//at.alicdn.com/t/font_1031158_u69w8yhxdu.woff?t=1630033759944&quot;) format(&quot;woff&quot;), url(&quot;//at.alicdn.com/t/font_1031158_u69w8yhxdu.ttf?t=1630033759944&quot;) format(&quot;truetype&quot;); }
</style>
  </defs>
  <path
     d="M 2000,2000 M 0,2000 a 2000,2000 0 1 0 4000,0 2000,2000 0 1 0 -4000,0 z"
     fill="#f8d2ff"
     p-id="2740"
     id="path860"
     style="stroke-width:4.58426" />
  <path
     d="m 2206.0791,598.05188 877.8312,506.74802 c 127.2152,73.4656 205.6097,209.1304 205.6097,356.0615 v 1013.7308 c 0,146.9311 -78.3945,282.5959 -205.6097,356.0615 l -877.8312,506.748 a 411.1724,411.1724 0 0 1 -411.2193,0 L 917.02852,2830.6537 A 411.14893,411.14893 0 0 1 711.41885,2474.5922 V 1460.8614 c 0,-146.9311 78.39455,-282.5959 205.60967,-356.0615 L 1794.8598,598.05188 c 127.2151,-73.46555 284.0042,-73.46555 411.2193,0 z"
     fill="#db90f6"
     p-id="2741"
     id="path862"
     style="stroke-width:4.58426" />
  <path
     d="m 3142.8236,1624.2225 -995.6578,-574.8151 a 293.72139,293.72139 0 0 0 -293.3928,0 L 858.11524,1624.2225 A 293.25197,293.25197 0 0 0 711.41885,1878.418 v 664.2413 c 0,104.9173 55.86199,201.6196 146.69639,254.1955 L 1853.773,3371.67 c 90.8344,52.3413 202.5584,52.3413 293.3928,0 l 995.6578,-574.8152 C 3233.658,2744.5136 3289.52,2647.5766 3289.52,2542.6593 V 1878.418 c 0,-104.9172 -56.0967,-201.8542 -146.6964,-254.1955 z"
     fill="#d186f7"
     p-id="2742"
     id="path864"
     style="stroke-width:4.58426" />
  <path
     d="m 3142.8236,2109.6116 -995.6578,-574.8152 a 293.72139,293.72139 0 0 0 -293.3928,0 l -995.65776,574.8152 a 293.25197,293.25197 0 0 0 -146.69639,254.1955 v 178.8522 c 0,104.9173 55.86199,201.6196 146.69639,254.1955 L 1853.773,3371.67 c 90.8344,52.3413 202.5584,52.3413 293.3928,0 l 995.6578,-574.8152 c 90.8344,-52.3412 146.6964,-149.2782 146.6964,-254.1955 v -178.8522 c 0,-104.9173 -56.0967,-201.8543 -146.6964,-254.1955 z"
     fill="#c276f6"
     p-id="2743"
     id="path866"
     style="stroke-width:4.58426" />
  <path
     d="m 2147.1658,2020.1854 a 293.72139,293.72139 0 0 0 -293.3928,0 l -995.65776,574.8152 a 291.56202,291.56202 0 0 0 -103.27426,100.9271 c 25.11442,41.075 60.32156,76.0474 103.27426,100.9271 L 1853.773,3371.67 c 90.8344,52.3413 202.5584,52.3413 293.3928,0 l 995.6578,-574.8152 c 43.1874,-24.8797 78.1599,-59.8521 103.2743,-100.9271 a 293.48668,293.48668 0 0 0 -103.2743,-100.9271 z"
     fill="#af64f6"
     p-id="2744"
     id="path868"
     style="stroke-width:4.58426" />
  <path
     d="m 1853.5383,2505.5745 -749.912,432.813 749.912,432.8131 c 90.8344,52.3412 202.5584,52.3412 293.3928,0 l 749.912,-432.8131 -749.912,-432.813 a 293.72139,293.72139 0 0 0 -293.3928,0 z"
     fill="#a25bf4"
     p-id="2745"
     id="path870"
     style="stroke-width:4.58426" />
  <text
     xml:space="preserve"
     style="font-style:normal;font-weight:normal;font-size:1466.96px;line-height:1.25;font-family:sans-serif;fill:#000000;fill-opacity:1;stroke:none;stroke-width:36.7319;stroke-miterlimit:4;stroke-dasharray:none"
     x="877.47321"
     y="2368.7842"
     id="text5513"><tspan
       id="tspan5511"
       style="font-style:normal;font-variant:normal;font-weight:normal;font-stretch:normal;font-size:1173.57px;font-family:Dungeon;-inkscape-font-specification:'Dungeon, Normal';font-variant-ligatures:normal;font-variant-caps:normal;font-variant-numeric:normal;font-variant-east-asian:normal;fill:#ffffff;stroke:none;stroke-width:36.7319;stroke-linecap:round;stroke-miterlimit:4;stroke-dasharray:none;stroke-opacity:0"
       x="877.47321"
       y="2368.7842"
       sodipodi:role="line">ZTY</tspan></text>
</svg>
