<?xml version="1.0" encoding="UTF-8" standalone="no"?>
<!-- Created with Inkscape (http://www.inkscape.org/) -->

<svg
   width="499.57782"
   height="208.97638"
   viewBox="0 0 132.17997 55.291668"
   version="1.1"
   id="svg33"
   inkscape:version="1.1 (c68e22c387, 2021-05-23)"
   sodipodi:docname="logo.svg"
   inkscape:export-filename="C:\Users\22515\Desktop\github\grace\public\logo.png"
   inkscape:export-xdpi="100"
   inkscape:export-ydpi="100"
   xmlns:inkscape="http://www.inkscape.org/namespaces/inkscape"
   xmlns:sodipodi="http://sodipodi.sourceforge.net/DTD/sodipodi-0.dtd"
   xmlns="http://www.w3.org/2000/svg"
   xmlns:svg="http://www.w3.org/2000/svg">
  <sodipodi:namedview
     id="namedview35"
     pagecolor="#ffffff"
     bordercolor="#666666"
     borderopacity="1.0"
     inkscape:pageshadow="2"
     inkscape:pageopacity="0.0"
     inkscape:pagecheckerboard="0"
     inkscape:document-units="mm"
     showgrid="false"
     fit-margin-top="10"
     fit-margin-left="10"
     fit-margin-right="10"
     fit-margin-bottom="10"
     inkscape:zoom="2.1997092"
     inkscape:cx="330.27093"
     inkscape:cy="128.42607"
     inkscape:window-width="2560"
     inkscape:window-height="1411"
     inkscape:window-x="-9"
     inkscape:window-y="-9"
     inkscape:window-maximized="1"
     inkscape:current-layer="layer1"
     lock-margins="false"
     units="px" />
  <defs
     id="defs30" />
  <g
     inkscape:label="图层 1"
     inkscape:groupmode="layer"
     id="layer1"
     transform="translate(-44.842798,-121.64435)">
    <path
       d="m 72.488631,149.29018 m -25,0 a 25,25 0 1 0 50,0 25,25 0 1 0 -50,0 z"
       fill="#f8d2ff"
       p-id="2740"
       id="path860"
       style="stroke-width:0.0573032" />
    <path
       d="m 73.618766,131.51813 10.397563,6.12448 c 1.506813,0.88788 2.435365,2.52751 2.435365,4.3033 v 12.25178 c 0,1.77577 -0.928552,3.4154 -2.435365,4.30329 l -10.397563,6.12447 a 4.8701744,4.9693596 0 0 1 -4.870732,0 l -10.397563,-6.12447 a 4.8698964,4.9690759 0 0 1 -2.435365,-4.30329 v -12.25178 c 0,-1.77579 0.928552,-3.41542 2.435365,-4.3033 l 10.397563,-6.12448 c 1.506813,-0.88789 3.363919,-0.88789 4.870732,0 z"
       fill="#db90f6"
       p-id="2741"
       id="path862"
       style="stroke-width:0.0548489" />
    <path
       d="m 84.714134,143.92026 -11.793173,-6.94712 a 3.4790137,3.5498667 0 0 0 -3.475122,0 l -11.793173,6.94712 a 3.4734536,3.5441934 0 0 0 -1.73756,3.07217 v 8.0279 c 0,1.26801 0.661663,2.43675 1.73756,3.07216 l 11.793173,6.94713 c 1.075898,0.63258 2.399224,0.63258 3.475122,0 l 11.793173,-6.94713 c 1.075898,-0.63258 1.73756,-1.80415 1.73756,-3.07216 v -8.0279 c 0,-1.26801 -0.664444,-2.43958 -1.73756,-3.07217 z"
       fill="#d186f7"
       p-id="2742"
       id="path864"
       style="stroke-width:0.0548489" />
    <path
       d="m 84.714134,149.78659 -11.793173,-6.94711 a 3.4790137,3.5498667 0 0 0 -3.475122,0 l -11.793173,6.94711 a 3.4734536,3.5441934 0 0 0 -1.73756,3.07216 v 2.16158 c 0,1.26801 0.661663,2.43675 1.73756,3.07216 l 11.793173,6.94713 c 1.075898,0.63258 2.399224,0.63258 3.475122,0 l 11.793173,-6.94713 c 1.075898,-0.63258 1.73756,-1.80415 1.73756,-3.07216 v -2.16158 c 0,-1.26801 -0.664444,-2.43958 -1.73756,-3.07216 z"
       fill="#c276f6"
       p-id="2743"
       id="path866"
       style="stroke-width:0.0548489" />
    <path
       d="m 72.920961,148.7058 a 3.4790137,3.5498667 0 0 0 -3.475122,0 l -11.793173,6.94713 a 3.4534369,3.523769 0 0 0 -1.223241,1.21978 c 0.297469,0.49642 0.714483,0.9191 1.223241,1.21978 l 11.793173,6.94713 c 1.075898,0.63258 2.399224,0.63258 3.475122,0 l 11.793173,-6.94713 c 0.511537,-0.30068 0.925772,-0.72336 1.223242,-1.21978 a 3.4762336,3.54703 0 0 0 -1.223242,-1.21978 z"
       fill="#af64f6"
       p-id="2744"
       id="path868"
       style="stroke-width:0.0548489" />
    <path
       d="m 69.44306,154.57214 -8.882412,5.23089 8.882412,5.23091 c 1.075897,0.63258 2.399222,0.63258 3.475121,0 l 8.88241,-5.23091 -8.88241,-5.23089 a 3.4790137,3.5498667 0 0 0 -3.475121,0 z"
       fill="#a25bf4"
       p-id="2745"
       id="path870"
       style="stroke-width:0.0548489" />
    <text
       xml:space="preserve"
       style="font-style:normal;font-weight:normal;font-size:17.5516px;line-height:1.25;font-family:sans-serif;fill:#000000;fill-opacity:1;stroke:none;stroke-width:0.439482;stroke-miterlimit:4;stroke-dasharray:none"
       x="58.468391"
       y="151.38515"
       id="text5513"
       transform="scale(0.98997002,1.0101316)"><tspan
         id="tspan5511"
         style="font-style:normal;font-variant:normal;font-weight:normal;font-stretch:normal;font-size:14.0413px;font-family:Dungeon;-inkscape-font-specification:'Dungeon, Normal';font-variant-ligatures:normal;font-variant-caps:normal;font-variant-numeric:normal;font-variant-east-asian:normal;fill:#ffffff;stroke:none;stroke-width:0.439482;stroke-linecap:round;stroke-miterlimit:4;stroke-dasharray:none;stroke-opacity:0"
         x="58.468391"
         y="151.38515"
         sodipodi:role="line">ZTY</tspan></text>
    <text
       xml:space="preserve"
       style="font-style:normal;font-weight:normal;font-size:17.5516px;line-height:1.25;font-family:sans-serif;fill:#000000;fill-opacity:1;stroke:none;stroke-width:0.438791"
       x="101.22932"
       y="149.91289"
       id="text1620"
       transform="scale(0.98997002,1.0101316)"><tspan
         sodipodi:role="line"
         id="tspan1618"
         style="font-style:normal;font-variant:normal;font-weight:normal;font-stretch:normal;font-size:31.75px;font-family:STXingkai;-inkscape-font-specification:'STXingkai, Normal';font-variant-ligatures:normal;font-variant-caps:normal;font-variant-numeric:normal;font-variant-east-asian:normal;fill:#ff62f4;fill-opacity:1;stroke-width:0.438791"
         x="101.22932"
         y="149.91289">相  左</tspan></text>
    <text
       xml:space="preserve"
       style="font-style:normal;font-weight:normal;font-size:17.5516px;line-height:1.25;font-family:sans-serif;fill:#000000;fill-opacity:1;stroke:none;stroke-width:0.438791"
       x="105.5642"
       y="167.48758"
       id="text32854"
       transform="scale(0.98997002,1.0101316)"><tspan
         sodipodi:role="line"
         id="tspan32852"
         style="font-style:normal;font-variant:normal;font-weight:normal;font-stretch:normal;font-size:8.77583px;font-family:'Kristen ITC';-inkscape-font-specification:'Kristen ITC, Normal';font-variant-ligatures:normal;font-variant-caps:normal;font-variant-numeric:normal;font-variant-east-asian:normal;fill:#000000;fill-opacity:0.520833;stroke-width:0.438791"
         x="105.5642"
         y="167.48758">www.ztyang.com</tspan></text>
  </g>
</svg>
