<?xml version="1.0" encoding="UTF-8" standalone="no"?>
<!-- Created with Inkscape (http://www.inkscape.org/) -->

<svg
   width="305.46121"
   height="129.06882"
   viewBox="0 0 80.819948 34.149458"
   version="1.1"
   id="svg33"
   inkscape:version="1.1 (c68e22c387, 2021-05-23)"
   sodipodi:docname="logo.svg"
   inkscape:export-filename="C:\Users\22515\Desktop\inis\grace\dist\logo.png"
   inkscape:export-xdpi="96"
   inkscape:export-ydpi="96"
   xmlns:inkscape="http://www.inkscape.org/namespaces/inkscape"
   xmlns:sodipodi="http://sodipodi.sourceforge.net/DTD/sodipodi-0.dtd"
   xmlns="http://www.w3.org/2000/svg"
   xmlns:svg="http://www.w3.org/2000/svg">
  <sodipodi:namedview
     id="namedview35"
     pagecolor="#ffffff"
     bordercolor="#666666"
     borderopacity="1.0"
     inkscape:pageshadow="2"
     inkscape:pageopacity="0.0"
     inkscape:pagecheckerboard="0"
     inkscape:document-units="mm"
     showgrid="false"
     fit-margin-top="10"
     fit-margin-left="10"
     fit-margin-right="10"
     fit-margin-bottom="10"
     inkscape:zoom="3.1108586"
     inkscape:cx="149.31569"
     inkscape:cy="31.020375"
     inkscape:window-width="2560"
     inkscape:window-height="1411"
     inkscape:window-x="-9"
     inkscape:window-y="-9"
     inkscape:window-maximized="1"
     inkscape:current-layer="layer1"
     lock-margins="false"
     units="px" />
  <defs
     id="defs30" />
  <g
     inkscape:label="图层 1"
     inkscape:groupmode="layer"
     id="layer1"
     transform="translate(-44.842798,-121.64434)">
    <path
       d="m 61.917526,138.71907 m -14.428895,0 a 14.428895,14.428895 0 1 0 28.85779,0 14.428895,14.428895 0 1 0 -28.85779,0 z"
       fill="#f8d2ff"
       p-id="2740"
       id="path860"
       style="stroke-width:0.0330729" />
    <path
       d="m 63.404273,128.60479 6.333067,3.65591 c 0.917787,0.53001 1.48336,1.50876 1.48336,2.56879 v 7.31351 c 0,1.06002 -0.565573,2.03877 -1.48336,2.56878 l -6.333067,3.65591 a 2.9663816,2.9663816 0 0 1 -2.966721,0 l -6.333067,-3.65591 a 2.9662123,2.9662123 0 0 1 -1.48336,-2.56878 v -7.31351 c 0,-1.06003 0.565573,-2.03878 1.48336,-2.56879 l 6.333067,-3.65591 c 0.917787,-0.53001 2.048934,-0.53001 2.966721,0 z"
       fill="#db90f6"
       p-id="2741"
       id="path862"
       style="stroke-width:0.0330729" />
    <path
       d="m 70.162367,136.00805 -7.183121,-4.14698 a 2.1190375,2.1190375 0 0 0 -2.116667,0 l -7.183121,4.14698 a 2.1156509,2.1156509 0 0 0 -1.058333,1.83388 v 4.79213 c 0,0.75692 0.403013,1.45458 1.058333,1.83388 l 7.183121,4.14698 c 0.65532,0.37761 1.461347,0.37761 2.116667,0 l 7.183121,-4.14698 c 0.65532,-0.37761 1.058333,-1.07696 1.058333,-1.83388 v -4.79213 c 0,-0.75692 -0.404707,-1.45627 -1.058333,-1.83388 z"
       fill="#d186f7"
       p-id="2742"
       id="path864"
       style="stroke-width:0.0330729" />
    <path
       d="m 70.162367,139.50986 -7.183121,-4.14697 a 2.1190375,2.1190375 0 0 0 -2.116667,0 l -7.183121,4.14697 a 2.1156509,2.1156509 0 0 0 -1.058333,1.83388 v 1.29032 c 0,0.75692 0.403013,1.45458 1.058333,1.83388 l 7.183121,4.14698 c 0.65532,0.37761 1.461347,0.37761 2.116667,0 l 7.183121,-4.14698 c 0.65532,-0.37761 1.058333,-1.07696 1.058333,-1.83388 v -1.29032 c 0,-0.75692 -0.404707,-1.45627 -1.058333,-1.83388 z"
       fill="#c276f6"
       p-id="2743"
       id="path866"
       style="stroke-width:0.0330729" />
    <path
       d="m 62.979246,138.8647 a 2.1190375,2.1190375 0 0 0 -2.116667,0 l -7.183121,4.14698 a 2.1034589,2.1034589 0 0 0 -0.745066,0.72813 c 0.181186,0.29633 0.435186,0.54864 0.745066,0.72813 l 7.183121,4.14698 c 0.65532,0.37761 1.461347,0.37761 2.116667,0 l 7.183121,-4.14698 c 0.311573,-0.17949 0.56388,-0.4318 0.745066,-0.72813 a 2.1173442,2.1173442 0 0 0 -0.745066,-0.72813 z"
       fill="#af64f6"
       p-id="2744"
       id="path868"
       style="stroke-width:0.0330729" />
    <path
       d="m 60.860886,142.36652 -5.410201,3.1225 5.410201,3.12251 c 0.65532,0.37761 1.461346,0.37761 2.116667,0 l 5.4102,-3.12251 -5.4102,-3.1225 a 2.1190375,2.1190375 0 0 0 -2.116667,0 z"
       fill="#a25bf4"
       p-id="2745"
       id="path870"
       style="stroke-width:0.0330729" />
    <text
       xml:space="preserve"
       style="font-style:normal;font-weight:normal;font-size:10.5833px;line-height:1.25;font-family:sans-serif;fill:#000000;fill-opacity:1;stroke:none;stroke-width:0.265;stroke-miterlimit:4;stroke-dasharray:none"
       x="53.819115"
       y="141.37965"
       id="text5513"><tspan
         id="tspan5511"
         style="font-style:normal;font-variant:normal;font-weight:normal;font-stretch:normal;font-size:8.46667px;font-family:Dungeon;-inkscape-font-specification:'Dungeon, Normal';font-variant-ligatures:normal;font-variant-caps:normal;font-variant-numeric:normal;font-variant-east-asian:normal;fill:#ffffff;stroke:none;stroke-width:0.265;stroke-linecap:round;stroke-miterlimit:4;stroke-dasharray:none;stroke-opacity:0"
         x="53.819115"
         y="141.37965"
         sodipodi:role="line">ZTY</tspan></text>
    <text
       xml:space="preserve"
       style="font-style:normal;font-weight:normal;font-size:10.5833px;line-height:1.25;font-family:sans-serif;fill:#000000;fill-opacity:1;stroke:none;stroke-width:0.264583"
       x="80.628868"
       y="140.4201"
       id="text1620"><tspan
         sodipodi:role="line"
         id="tspan1618"
         style="font-style:normal;font-variant:normal;font-weight:normal;font-stretch:normal;font-size:17.6389px;font-family:STXingkai;-inkscape-font-specification:'STXingkai, Normal';font-variant-ligatures:normal;font-variant-caps:normal;font-variant-numeric:normal;font-variant-east-asian:normal;fill:#ff62f4;fill-opacity:1;stroke-width:0.264583"
         x="80.628868"
         y="140.4201">相  左</tspan></text>
    <text
       xml:space="preserve"
       style="font-style:normal;font-weight:normal;font-size:10.5833px;line-height:1.25;font-family:sans-serif;fill:#000000;fill-opacity:1;stroke:none;stroke-width:0.264583"
       x="80.458763"
       y="150.37114"
       id="text32854"><tspan
         sodipodi:role="line"
         id="tspan32852"
         style="font-style:normal;font-variant:normal;font-weight:normal;font-stretch:normal;font-size:5.29167px;font-family:'Kristen ITC';-inkscape-font-specification:'Kristen ITC, Normal';font-variant-ligatures:normal;font-variant-caps:normal;font-variant-numeric:normal;font-variant-east-asian:normal;fill:#000000;fill-opacity:0.520833;stroke-width:0.264583"
         x="80.458763"
         y="150.37114">www.ztyang.com</tspan></text>
  </g>
</svg>
