<?xml version="1.0" standalone="no"?><!DOCTYPE svg PUBLIC "-//W3C//DTD SVG 1.1//EN" "http://www.w3.org/Graphics/SVG/1.1/DTD/svg11.dtd"><svg t="1656642036629" class="icon" viewBox="0 0 1024 1024" version="1.1" xmlns="http://www.w3.org/2000/svg" p-id="8045" xmlns:xlink="http://www.w3.org/1999/xlink"><defs><style type="text/css">@font-face { font-family: element-icons; src: url("chrome-extension://moombeodfomdpjnpocobemoiaemednkg/fonts/element-icons.woff") format("woff"), url("chrome-extension://moombeodfomdpjnpocobemoiaemednkg/fonts/element-icons.ttf ") format("truetype"); }
@font-face { font-family: feedback-iconfont; src: url("//at.alicdn.com/t/font_1031158_u69w8yhxdu.woff2?t=1630033759944") format("woff2"), url("//at.alicdn.com/t/font_1031158_u69w8yhxdu.woff?t=1630033759944") format("woff"), url("//at.alicdn.com/t/font_1031158_u69w8yhxdu.ttf?t=1630033759944") format("truetype"); }
</style></defs><path d="M960.063936 40.919081C975.408591 40.919081 982.569431 54.217782 982.569431 63.424575l0 338.605395c0 9.206793-7.160839 23.528472-23.528472 23.528472L620.435564 425.558442c-15.344655 0-23.528472-13.298701-23.528472-23.528472L596.907093 63.424575c0-9.206793 7.160839-23.528472 23.528472-23.528472L960.063936 39.896104M960.063936 0 620.435564 0c-38.873127 0-64.447552 31.712288-64.447552 64.447552l0 338.605395c0 31.712288 25.574426 64.447552 64.447552 64.447552l338.605395 0c38.873127 0 64.447552-31.712288 64.447552-64.447552L1023.488511 63.424575C1023.488511 31.712288 997.914086 0 960.063936 0L960.063936 0z" p-id="8046" data-spm-anchor-id="a313x.7781069.0.i6" class="selected" fill="var(--theme-color)"></path><path d="M403.564436 40.919081c15.344655 0 23.528472 13.298701 23.528472 23.528472l0 338.605395c0 9.206793-7.160839 23.528472-23.528472 23.528472l-338.605395 0c-15.344655 0-23.528472-13.298701-23.528472-23.528472L41.430569 63.424575c0-9.206793 7.160839-23.528472 23.528472-23.528472L403.564436 39.896104M403.564436 0l-338.605395 0C26.085914 0 0.511489 31.712288 0.511489 63.424575l0 338.605395c0 31.712288 25.574426 64.447552 64.447552 64.447552l338.605395 0c38.873127 0 64.447552-31.712288 64.447552-64.447552L468.011988 63.424575C466.989011 31.712288 441.414585 0 403.564436 0L403.564436 0z" p-id="8047" data-spm-anchor-id="a313x.7781069.0.i5" class="selected" fill="var(--theme-color)"></path><path d="M403.564436 597.418581c15.344655 0 23.528472 7.160839 23.528472 23.528472l0 338.605395c0 9.206793-7.160839 23.528472-23.528472 23.528472l-338.605395 0c-15.344655 0-23.528472-13.298701-23.528472-23.528472L41.430569 619.924076c0-9.206793 13.298701-23.528472 23.528472-23.528472L403.564436 596.395604M403.564436 556.4995l-338.605395 0c-31.712288 0-64.447552 31.712288-64.447552 64.447552l0 338.605395c0 31.712288 25.574426 64.447552 64.447552 64.447552l338.605395 0c38.873127 0 64.447552-31.712288 64.447552-64.447552L468.011988 619.924076C466.989011 582.073926 441.414585 556.4995 403.564436 556.4995L403.564436 556.4995z" p-id="8048" data-spm-anchor-id="a313x.7781069.0.i4" class="selected" fill="var(--theme-color)"></path><path d="M787.180819 591.280719C898.685315 591.280719 982.569431 675.164835 982.569431 786.669331S898.685315 982.057942 787.180819 982.057942c-107.412587 0-195.388611-87.976024-195.388611-195.388611S678.745255 591.280719 787.180819 591.280719M787.180819 550.361638c-127.872128 0-236.307692 102.297702-236.307692 236.307692 0 127.872128 102.297702 236.307692 236.307692 236.307692S1023.488511 920.679321 1023.488511 786.669331 921.190809 550.361638 787.180819 550.361638L787.180819 550.361638z" p-id="8049" data-spm-anchor-id="a313x.7781069.0.i7" class="selected" fill="var(--theme-color)"></path></svg>