<?xml version="1.0" standalone="no"?><!DOCTYPE svg PUBLIC "-//W3C//DTD SVG 1.1//EN" "http://www.w3.org/Graphics/SVG/1.1/DTD/svg11.dtd"><svg t="1655278061375" class="icon" viewBox="0 0 1024 1024" version="1.1" xmlns="http://www.w3.org/2000/svg" p-id="24184" xmlns:xlink="http://www.w3.org/1999/xlink" width="128" height="128"><defs><style type="text/css">@font-face { font-family: element-icons; src: url("chrome-extension://moombeodfomdpjnpocobemoiaemednkg/fonts/element-icons.woff") format("woff"), url("chrome-extension://moombeodfomdpjnpocobemoiaemednkg/fonts/element-icons.ttf ") format("truetype"); }
@font-face { font-family: feedback-iconfont; src: url("//at.alicdn.com/t/font_1031158_u69w8yhxdu.woff2?t=1630033759944") format("woff2"), url("//at.alicdn.com/t/font_1031158_u69w8yhxdu.woff?t=1630033759944") format("woff"), url("//at.alicdn.com/t/font_1031158_u69w8yhxdu.ttf?t=1630033759944") format("truetype"); }
</style></defs><path d="M816.84 361.54c48.54-105.87 51.18-181.16 7.43-218.22-16.08-13.62-45.65-27.28-95.19-15-26.19 6.47-55.86 19.55-88.39 38.9a330.22 330.22 0 0 0-420.86 469q-10.44 20.67-19 40.45c-18.54 43.09-29.18 81-31.63 112.64-3.94 50.89 14.41 77.8 30.49 91.43 10.84 9.18 29.69 19.85 58.73 19.85 1.35 0 2.72 0 4.12-0.07 19.8-0.67 42.36-6.17 67.05-16.34 40.93-16.86 88.92-47.1 139.46-87.79a335.84 335.84 0 0 0 35 1.84 329.14 329.14 0 0 0 224.85-88.4 36 36 0 0 0-49-52.73 257.4 257.4 0 0 1-175.8 69.07c-80.48 0-152.47-37-199.88-94.89 23.45-41.07 52.27-84.17 85.24-127.37h392.42a52 52 0 0 0 51.93-54.83 329.57 329.57 0 0 0-16.97-87.54z m-39.1-163.28c6.34 5.38 10.08 30.22-4.75 77.89a332.55 332.55 0 0 0-61.5-65.21c41.65-19.27 61.81-16.43 66.25-12.68z m-273.66 11.39a258.63 258.63 0 0 1 63.58 7.91C506 265.5 441.13 328.62 380.3 400.45q-13.3 15.66-25.93 31.46h-106c17.51-125.43 125.51-222.26 255.71-222.26zM270.55 701.44a329 329 0 0 0 105 70.76c1.27 0.54 2.55 1 3.82 1.56-28.1 19.49-54.19 34.34-77.12 43.78-34.92 14.39-51.87 11.65-55.95 8.2-5.92-5-14.83-38 20.75-120.67 0.71-1.66 1.45-3.34 2.19-5 0.41 0.45 0.85 0.93 1.31 1.37z m-7.68-141.26a255.46 255.46 0 0 1-14.53-56.27h51.88q-19.92 28.35-37.35 56.27z m185.31-128.27c64.82-74.5 133.23-137.75 195.73-181.13a258.86 258.86 0 0 1 100.5 122.37l0.08 0.2a255.78 255.78 0 0 1 15.36 58.56z" p-id="24185"></path></svg>