<?xml version="1.0" standalone="no"?><!DOCTYPE svg PUBLIC "-//W3C//DTD SVG 1.1//EN" "http://www.w3.org/Graphics/SVG/1.1/DTD/svg11.dtd"><svg t="1654928415350" class="icon" viewBox="0 0 1024 1024" version="1.1" xmlns="http://www.w3.org/2000/svg" p-id="13623" xmlns:xlink="http://www.w3.org/1999/xlink" width="128" height="128"><defs><style type="text/css">@font-face { font-family: element-icons; src: url("chrome-extension://moombeodfomdpjnpocobemoiaemednkg/fonts/element-icons.woff") format("woff"), url("chrome-extension://moombeodfomdpjnpocobemoiaemednkg/fonts/element-icons.ttf ") format("truetype"); }
@font-face { font-family: feedback-iconfont; src: url("//at.alicdn.com/t/font_1031158_u69w8yhxdu.woff2?t=1630033759944") format("woff2"), url("//at.alicdn.com/t/font_1031158_u69w8yhxdu.woff?t=1630033759944") format("woff"), url("//at.alicdn.com/t/font_1031158_u69w8yhxdu.ttf?t=1630033759944") format("truetype"); }
</style></defs><path d="M824.75 844.667h-625.5c-57.576 0-104.25-46.674-104.25-104.25v-417c0-57.576 46.674-104.25 104.25-104.25h93.322a25.428 25.428 0 0 0 24.685-19.325l7.445-30.115c7.73-31.27 45.118-54.809 84.062-54.809h211.54c38.944 0 76.337 23.54 84.065 54.809l7.445 30.115a25.428 25.428 0 0 0 24.685 19.325h88.25c57.576 0 104.25 46.674 104.25 104.25v417c0.001 57.576-46.673 104.25-104.249 104.25z" fill="#FFA820" p-id="13624"></path><path d="M95 673.089v67.329c0 57.576 46.674 104.25 104.25 104.25h19.707C164.586 798.994 121.634 740.169 95 673.089zM929 740.418v-417c0-57.576-46.674-104.25-104.25-104.25h-12.148c71.981 77.169 116.027 180.733 116.027 294.586 0 132.839-59.964 251.67-154.296 330.913h50.417c57.576 0 104.25-46.674 104.25-104.249zM95 323.418v31.002c19.688-49.587 48.295-94.661 83.838-133.249C131.036 230.662 95 272.829 95 323.418z" fill="#FEAC33" p-id="13625"></path><path d="M928.63 513.755c0-113.853-44.047-217.418-116.027-294.586H736.5a25.38 25.38 0 0 1-6.798-0.938c74.567 68.165 121.342 166.228 121.342 275.218 0 161.943-103.263 299.762-247.533 351.219h170.822c94.333-79.243 154.297-198.074 154.297-330.913zM105.461 493.448c0-108.492 46.35-206.154 120.322-274.28H199.25c-6.986 0-13.81 0.693-20.412 2.003-35.543 38.588-64.15 83.662-83.838 133.249v318.669c26.634 67.08 69.586 125.905 123.956 171.578h134.037c-144.27-51.457-247.532-189.276-247.532-351.219zM713.262 204.055a25.445 25.445 0 0 1-1.447-4.212l-7.445-30.115c-7.728-31.27-45.121-54.809-84.065-54.809h-211.54c-29.878 0-58.823 13.864-74.179 34.435 44.216-18.483 92.748-28.697 143.667-28.697 89.092-0.001 170.88 31.257 235.009 83.398z" fill="#FEB133" p-id="13626"></path><path d="M851.044 493.448c0-108.99-46.775-207.052-121.342-275.218a25.434 25.434 0 0 1-16.44-14.175c-64.128-52.141-145.917-83.398-235.009-83.398-50.919 0-99.451 10.214-143.667 28.697-4.66 6.242-8.083 13.095-9.883 20.374l-5.733 23.19c42.363-21.341 90.219-33.375 140.891-33.375 173.196 0 313.599 140.403 313.599 313.599S633.055 786.74 459.86 786.74 146.261 646.337 146.261 473.141c0-104.464 51.092-196.982 129.636-253.973h-50.114c-73.973 68.125-120.322 165.788-120.322 274.28 0 161.943 103.263 299.762 247.533 351.219h250.518c144.269-51.457 247.532-189.276 247.532-351.219z" fill="#FEB633" p-id="13627"></path><path d="M146.261 473.141c0 173.196 140.403 313.599 313.599 313.599s313.599-140.403 313.599-313.599S633.055 159.543 459.86 159.543c-50.672 0-98.528 12.034-140.891 33.375l-1.712 6.925a25.428 25.428 0 0 1-24.685 19.325h-16.675c-78.544 56.992-129.636 149.509-129.636 253.973z m295.206-274.712c140.504 0 254.406 113.901 254.406 254.406S581.971 707.24 441.467 707.24 187.061 593.339 187.061 452.835s113.902-254.406 254.406-254.406z" fill="#FFBC34" p-id="13628"></path><path d="M441.467 707.24c140.504 0 254.406-113.901 254.406-254.406S581.971 198.429 441.467 198.429 187.061 312.33 187.061 452.835 300.963 707.24 441.467 707.24z m-18.393-469.924c107.813 0 195.213 87.4 195.213 195.213s-87.4 195.213-195.213 195.213-195.213-87.4-195.213-195.213 87.4-195.213 195.213-195.213z" fill="#FFC134" p-id="13629"></path><path d="M423.074 627.741c107.813 0 195.213-87.4 195.213-195.213s-87.4-195.213-195.213-195.213-195.213 87.4-195.213 195.213 87.4 195.213 195.213 195.213z m-18.392-351.539c75.122 0 136.02 60.898 136.02 136.02s-60.898 136.02-136.02 136.02-136.02-60.898-136.02-136.02 60.898-136.02 136.02-136.02z" fill="#FFC634" p-id="13630"></path><path d="M404.682 412.221m-136.02 0a136.02 136.02 0 1 0 272.04 0 136.02 136.02 0 1 0-272.04 0Z" fill="#FFCB34" p-id="13631"></path><path d="M620.304 132.918c31.113 0 60.986 18.45 66.591 41.13l7.445 30.115a43.347 43.347 0 0 0 42.159 33.005h88.25c47.558 0 86.25 38.691 86.25 86.25v417c0 47.558-38.691 86.25-86.25 86.25h-625.5c-47.558 0-86.25-38.691-86.25-86.25v-417c0-47.558 38.692-86.25 86.25-86.25h93.322a43.347 43.347 0 0 0 42.159-33.005l7.446-30.116c5.606-22.679 35.477-41.129 66.588-41.129h211.54m0-18h-211.54c-38.944 0-76.332 23.54-84.062 54.809l-7.446 30.115a25.428 25.428 0 0 1-24.685 19.325H199.25c-57.576 0-104.25 46.674-104.25 104.25v417c0 57.576 46.674 104.25 104.25 104.25h625.5c57.576 0 104.25-46.674 104.25-104.25v-417c0-57.576-46.674-104.25-104.25-104.25H736.5a25.428 25.428 0 0 1-24.685-19.325l-7.445-30.115c-7.729-31.269-45.122-54.809-84.066-54.809z" fill="#FFA820" p-id="13632"></path><path d="M511.426 343.517c-105.555 0-191.126 85.57-191.126 191.126 0 105.553 85.572 191.125 191.126 191.125 105.553 0 191.125-85.572 191.125-191.125-0.001-105.556-85.572-191.126-191.125-191.126z m277.999-34.75h-34.75c-19.192 0-34.75 15.557-34.75 34.75 0 19.194 15.558 34.752 34.75 34.752h34.75c19.192 0 34.75-15.558 34.75-34.752 0-19.193-15.557-34.75-34.75-34.75z" fill="#FFE3B4" p-id="13633"></path><path d="M157.447 374.303c-9.941 0-18-8.059-18-18v-16.292c0-42.395 34.491-76.885 76.885-76.885h38.577c9.941 0 18 8.059 18 18s-8.059 18-18 18h-38.577c-22.544 0-40.885 18.341-40.885 40.885v16.292c0 9.941-8.059 18-18 18zM157.447 443.908c-9.941 0-18-8.059-18-18v-10.545c0-9.941 8.059-18 18-18s18 8.059 18 18v10.545c0 9.941-8.059 18-18 18z" fill="#FFFFFF" p-id="13634"></path></svg>