<?xml version="1.0" standalone="no"?><!DOCTYPE svg PUBLIC "-//W3C//DTD SVG 1.1//EN" "http://www.w3.org/Graphics/SVG/1.1/DTD/svg11.dtd"><svg t="1656249131856" class="icon" viewBox="0 0 1024 1024" version="1.1" xmlns="http://www.w3.org/2000/svg" p-id="8532" xmlns:xlink="http://www.w3.org/1999/xlink" width="128" height="128"><defs><style type="text/css">@font-face { font-family: element-icons; src: url("chrome-extension://moombeodfomdpjnpocobemoiaemednkg/fonts/element-icons.woff") format("woff"), url("chrome-extension://moombeodfomdpjnpocobemoiaemednkg/fonts/element-icons.ttf ") format("truetype"); }
@font-face { font-family: feedback-iconfont; src: url("//at.alicdn.com/t/font_1031158_u69w8yhxdu.woff2?t=1630033759944") format("woff2"), url("//at.alicdn.com/t/font_1031158_u69w8yhxdu.woff?t=1630033759944") format("woff"), url("//at.alicdn.com/t/font_1031158_u69w8yhxdu.ttf?t=1630033759944") format("truetype"); }
</style></defs><path d="M57.856 427.008h908.8c31.744 0 57.856-26.112 57.856-57.856 0-17.408-7.68-33.28-20.992-44.544-3.072-4.096-7.168-7.68-11.264-10.752l-339.456-238.08c-26.112-18.432-61.952-12.288-80.384 13.824-18.432 26.112-11.776 61.952 14.336 80.384l201.216 141.312H57.856C26.112 311.808 0 337.92 0 369.664s26.112 57.344 57.856 57.344zM966.144 596.992H57.856c-31.744 0-57.856 26.112-57.856 57.856 0 17.408 7.68 33.28 20.992 44.544 3.584 4.096 7.168 7.68 11.264 10.752l339.456 238.08c9.728 6.656 20.992 10.24 33.28 10.24 18.944 0 36.352-9.216 47.104-24.576 8.704-12.8 12.288-27.648 9.728-43.008s-11.264-28.16-23.552-37.376l-201.216-141.312h729.6c31.744 0 57.856-26.112 57.856-57.856-0.512-31.744-26.624-57.344-58.368-57.344z" p-id="8533" fill="var(--h2-color)" ></path></svg>