<?xml version="1.0" standalone="no"?><!DOCTYPE svg PUBLIC "-//W3C//DTD SVG 1.1//EN" "http://www.w3.org/Graphics/SVG/1.1/DTD/svg11.dtd"><svg t="1657677529085" class="icon" viewBox="0 0 1024 1024" version="1.1" xmlns="http://www.w3.org/2000/svg" p-id="3133" xmlns:xlink="http://www.w3.org/1999/xlink" width="16" height="16"><defs><style type="text/css">@font-face { font-family: element-icons; src: url("chrome-extension://moombeodfomdpjnpocobemoiaemednkg/fonts/element-icons.woff") format("woff"), url("chrome-extension://moombeodfomdpjnpocobemoiaemednkg/fonts/element-icons.ttf ") format("truetype"); }
@font-face { font-family: feedback-iconfont; src: url("//at.alicdn.com/t/font_1031158_u69w8yhxdu.woff2?t=1630033759944") format("woff2"), url("//at.alicdn.com/t/font_1031158_u69w8yhxdu.woff?t=1630033759944") format("woff"), url("//at.alicdn.com/t/font_1031158_u69w8yhxdu.ttf?t=1630033759944") format("truetype"); }
</style></defs><path d="M918.090878 267.682575c-36.099173-2.492774-72.380494-9.273201-103.496166-19.237133-10.075473-3.03001-20.161179-6.388501-30.306236-10.021238-21.385053-6.29845-50.481741-18.791995-83.506902-36.592406-0.354064-0.161682-0.704035-0.364297-1.052982-0.552585-7.763824-4.190439-15.706727-8.66331-23.793916-13.412474-10.898211-6.243191-21.689998-12.902868-32.462343-19.84293-0.417509-0.281409-0.829901-0.533143-1.237177-0.806365-7.738241-4.997827-15.443737-10.158361-23.092951-15.518438-4.976338-3.413749-9.959839-7.051603-14.945387-10.659781-3.748371-2.7486-7.496741-5.330402-11.248182-8.16496-27.427676-20.48659-54.499242-43.471071-79.849606-68.233034-25.350364 24.761963-52.426023 47.746444-79.853699 68.233034-3.744277 2.833535-7.498788 5.41636-11.246135 8.16496-4.991688 3.608178-9.970072 7.246031-14.945387 10.659781-7.652284 5.360078-15.356756 10.520611-23.094998 15.518438-0.405229 0.273223-0.824785 0.524956-1.232061 0.806365-10.780531 6.941086-21.564132 13.599739-32.464389 19.84293-8.090259 4.748141-16.030092 9.222035-23.798009 13.412474-0.345877 0.187265-0.704035 0.38988-1.046842 0.552585-33.025161 17.800411-62.127989 30.292933-83.515089 36.592406-10.138918 3.637854-20.216437 6.992251-30.302143 10.021238-31.118741 9.963932-67.390853 16.744359-103.496166 19.237133l-0.086981 0c1.052982 16.181541 2.13871 37.645388 3.403516 60.882626 0.200568 0 0.434905 0 0.669242-0.035816 6.091742 86.72827 23.472598 210.093972 49.694819 282.57782 1.174756 3.166109 2.172479 6.471388 3.347235 9.605775 0.550539 1.473561 1.196245 2.837628 1.750877 4.303003 62.763462 162.03849 171.776272 279.94076 302.786071 323.156004l0 0.450255c17.316387 5.716188 31.905664 9.249665 43.426045 11.467169 11.518335-2.223644 26.115797-5.750981 43.432185-11.467169l0-0.450255c131.011846-43.215244 240.017492-161.117514 302.788118-323.156004 0.554632-1.475608 1.198292-2.829442 1.757017-4.303003 1.166569-3.134387 2.168386-6.439666 3.339048-9.605775 26.227338-72.484871 43.60717-195.84955 49.700959-282.57782 0.236384 0.033769 0.473791 0.033769 0.669242 0.033769 1.26276-23.235191 2.343371-44.696991 3.3984-60.880579L918.090878 267.682575zM870.734314 309.574684l-0.509606 9.497305c-0.51984 2.166339-0.86367 4.379751-1.02126 6.622838-5.674233 80.730673-21.61018 200.398146-47.276746 271.336802-0.710175 1.920746-1.375324 3.885494-2.034333 5.847172-0.411369 1.221828-0.816598 2.449795-1.445932 4.049223-0.524956 1.232061-1.036609 2.467191-1.38351 3.396353C758.704798 760.970398 658.351206 869.434715 541.728068 907.903865c-1.886977 0.620124-3.708462 1.359974-5.458315 2.200108-7.915273 2.473331-15.665795 4.582365-23.177885 6.302543-7.460925-1.709945-15.179724-3.810792-23.077601-6.272867-1.77646-0.855484-3.626597-1.599428-5.544273-2.230808C367.840716 869.434715 267.48917 760.970398 209.243605 610.599645c-0.458441-1.206478-0.940418-2.37714-1.692548-4.14746-0.443092-1.178849-0.840134-2.394537-1.251503-3.610224-0.663102-1.963725-1.332345-3.931542-1.934049-5.560646-25.759687-71.198575-41.694611-190.869119-47.364751-271.582395-0.157589-2.251274-0.50142-4.473895-1.027399-6.644327l-0.497327-9.296737c-0.078795-1.493004-0.157589-2.974751-0.236384-4.446265 24.62177-3.805676 48.370661-9.30083 69.956282-16.21838 10.130731-3.045359 20.419052-6.435573 31.414477-10.353812 25.206078-7.576559 56.437383-21.220301 90.478687-39.532365 0.590448-0.302899 1.155313-0.603751 1.654686-0.877997 8.228405-4.439102 16.647145-9.182127 24.809035-13.975293 10.709923-6.132674 21.985734-13.023618 34.475186-21.064758 0.349971-0.224104 0.952698-0.611937 1.296529-0.846274 8.204869-5.300726 16.375969-10.776438 24.12035-16.205077 4.546549-3.114944 9.094122-6.402827 13.650905-9.699919l2.443655-1.769296 4.041036-2.912329c2.581802-1.847068 5.16258-3.699252 7.535627-5.495154 17.894555-13.369495 35.278481-27.453259 51.984978-42.119283 16.687054 14.650675 34.022884 28.704762 51.797713 41.980113 2.565429 1.936095 5.127787 3.776 7.691169 5.609765l4.27742 3.085268 1.552356 1.125637c4.77884 3.462868 9.56075 6.92369 13.94971 9.928117 8.117888 5.693676 16.301268 11.17348 23.730471 15.962553l2.059915 1.345648c12.386098 7.980765 23.663956 14.874779 34.072003 20.836561 8.576329 5.03262 16.994046 9.774621 25.015743 14.103206 0.399089 0.217964 0.950651 0.50756 1.534959 0.808412 34.167171 18.404162 65.523319 32.114418 90.813309 39.71963 11.014868 3.921309 21.271466 7.30129 30.587646 10.091846 22.11774 7.083326 46.068222 12.641925 70.781066 16.470113C870.888833 306.717613 870.812085 308.142056 870.734314 309.574684zM711.261253 411.655617 476.928227 651.831722 356.968088 528.867156c-8.311293-8.515954-21.772886-8.515954-30.084179 0-8.311293 8.523117-8.311293 22.320355 0 30.839379l135.00274 138.378627c4.155646 4.260024 9.597589 6.390547 15.041578 6.390547 5.443989 0 10.886955-2.130524 15.040555-6.390547l249.374604-255.592212c8.311293-8.515954 8.311293-22.316262 0-30.837332C733.034139 403.137617 719.571523 403.137617 711.261253 411.655617z" p-id="3134"></path></svg>