<?xml version="1.0" standalone="no"?><!DOCTYPE svg PUBLIC "-//W3C//DTD SVG 1.1//EN" "http://www.w3.org/Graphics/SVG/1.1/DTD/svg11.dtd"><svg t="1655528286505" class="icon" viewBox="0 0 1024 1024" version="1.1" xmlns="http://www.w3.org/2000/svg" p-id="17311" xmlns:xlink="http://www.w3.org/1999/xlink" width="128" height="128"><defs><style type="text/css">@font-face { font-family: element-icons; src: url("chrome-extension://moombeodfomdpjnpocobemoiaemednkg/fonts/element-icons.woff") format("woff"), url("chrome-extension://moombeodfomdpjnpocobemoiaemednkg/fonts/element-icons.ttf ") format("truetype"); }
@font-face { font-family: feedback-iconfont; src: url("//at.alicdn.com/t/font_1031158_u69w8yhxdu.woff2?t=1630033759944") format("woff2"), url("//at.alicdn.com/t/font_1031158_u69w8yhxdu.woff?t=1630033759944") format("woff"), url("//at.alicdn.com/t/font_1031158_u69w8yhxdu.ttf?t=1630033759944") format("truetype"); }
</style></defs><path d="M523.73504 319.29344h-204.8c-16.896 0-30.72-13.824-30.72-30.72s13.824-30.72 30.72-30.72h204.8c16.896 0 30.72 13.824 30.72 30.72s-13.824 30.72-30.72 30.72zM605.65504 452.41344h-286.72c-16.896 0-30.72-13.824-30.72-30.72s13.824-30.72 30.72-30.72h286.72c16.896 0 30.72 13.824 30.72 30.72s-13.824 30.72-30.72 30.72z" fill="#FFFFFF" p-id="17312"></path><path d="M512 512m-389.7856 0a389.7856 389.7856 0 1 0 779.5712 0 389.7856 389.7856 0 1 0-779.5712 0Z" fill="#3889FF" p-id="17313"></path><path d="M751.43168 315.33056L268.78976 500.45952a5.24288 5.24288 0 0 0-0.9216 9.33888l119.52128 75.48928c1.75104 1.10592 3.9936 1.0752 5.71392-0.07168l140.50304-93.67552c4.80256-3.20512 10.50624 2.56 7.24992 7.33184l-85.36064 125.19424a5.25312 5.25312 0 0 0 1.536 7.40352l121.53856 76.75904a5.25312 5.25312 0 0 0 7.59808-2.29376l171.9296-383.54944a5.24288 5.24288 0 0 0-6.66624-7.05536zM383.87712 619.27424l-12.43136 45.57824c-1.81248 6.656 5.59104 11.99104 11.33568 8.17152l37.28384-24.86272a7.46496 7.46496 0 0 0 0.63488-11.93984l-24.86272-20.71552a7.44448 7.44448 0 0 0-11.96032 3.76832z" fill="#FFFFFF" p-id="17314"></path></svg>