<?xml version="1.0" standalone="no"?><!DOCTYPE svg PUBLIC "-//W3C//DTD SVG 1.1//EN" "http://www.w3.org/Graphics/SVG/1.1/DTD/svg11.dtd"><svg t="1656644975474" class="icon" viewBox="0 0 1029 1024" version="1.1" xmlns="http://www.w3.org/2000/svg" p-id="4940" xmlns:xlink="http://www.w3.org/1999/xlink" width="128.625" height="128"><defs><style type="text/css">@font-face { font-family: element-icons; src: url("chrome-extension://moombeodfomdpjnpocobemoiaemednkg/fonts/element-icons.woff") format("woff"), url("chrome-extension://moombeodfomdpjnpocobemoiaemednkg/fonts/element-icons.ttf ") format("truetype"); }
@font-face { font-family: feedback-iconfont; src: url("//at.alicdn.com/t/font_1031158_u69w8yhxdu.woff2?t=1630033759944") format("woff2"), url("//at.alicdn.com/t/font_1031158_u69w8yhxdu.woff?t=1630033759944") format("woff"), url("//at.alicdn.com/t/font_1031158_u69w8yhxdu.ttf?t=1630033759944") format("truetype"); }
</style></defs><path d="M486.656 997.312c-268.288 0-486.656-218.304-486.656-486.656 0-268.288 218.304-486.656 486.656-486.656 268.352 0 486.656 218.304 486.656 486.656C973.376 779.008 755.008 997.312 486.656 997.312zM486.656 88c-233.088 0-422.656 189.568-422.656 422.656 0 233.088 189.568 422.656 422.656 422.656s422.656-189.632 422.656-422.656C909.376 277.568 719.744 88 486.656 88z" p-id="4941" data-spm-anchor-id="a313x.7781069.0.i5" class="selected" fill="var(--theme-color)"></path><path d="M816.064 544 432.064 544 432.064 160 496.064 160 496.064 480 816.064 480Z" p-id="4942" data-spm-anchor-id="a313x.7781069.0.i6" class="selected" fill="var(--theme-color)"></path></svg>