<?xml version="1.0" standalone="no"?><!DOCTYPE svg PUBLIC "-//W3C//DTD SVG 1.1//EN" "http://www.w3.org/Graphics/SVG/1.1/DTD/svg11.dtd"><svg t="1655353788920" class="icon" viewBox="0 0 1024 1024" version="1.1" xmlns="http://www.w3.org/2000/svg" p-id="3710" xmlns:xlink="http://www.w3.org/1999/xlink" width="128" height="128"><defs><style type="text/css">@font-face { font-family: element-icons; src: url("chrome-extension://moombeodfomdpjnpocobemoiaemednkg/fonts/element-icons.woff") format("woff"), url("chrome-extension://moombeodfomdpjnpocobemoiaemednkg/fonts/element-icons.ttf ") format("truetype"); }
@font-face { font-family: feedback-iconfont; src: url("//at.alicdn.com/t/font_1031158_u69w8yhxdu.woff2?t=1630033759944") format("woff2"), url("//at.alicdn.com/t/font_1031158_u69w8yhxdu.woff?t=1630033759944") format("woff"), url("//at.alicdn.com/t/font_1031158_u69w8yhxdu.ttf?t=1630033759944") format("truetype"); }
</style></defs><path d="M896 196.923077H649.846154V118.153846c0-43.323077-35.446154-78.769231-78.769231-78.769231h-118.153846c-43.323077 0-78.769231 35.446154-78.769231 78.769231v78.769231H128c-15.753846 0-29.538462 13.784615-29.538462 29.538461v59.076924c0 15.753846 13.784615 29.538462 29.538462 29.538461h768c15.753846 0 29.538462-13.784615 29.538462-29.538461v-59.076924c0-15.753846-13.784615-29.538462-29.538462-29.538461zM452.923077 137.846154c0-11.815385 7.876923-19.692308 19.692308-19.692308h78.76923c11.815385 0 19.692308 7.876923 19.692308 19.692308v59.076923h-118.153846V137.846154z m364.307692 256h-610.461538c-15.753846 0-29.538462 13.784615-29.538462 29.538461V886.153846c0 55.138462 43.323077 98.461538 98.461539 98.461539h472.615384c55.138462 0 98.461538-43.323077 98.461539-98.461539V423.384615c0-15.753846-13.784615-29.538462-29.538462-29.538461zM452.923077 827.076923c0 11.815385-7.876923 19.692308-19.692308 19.692308h-39.384615c-11.815385 0-19.692308-7.876923-19.692308-19.692308V551.384615c0-11.815385 7.876923-19.692308 19.692308-19.692307h39.384615c11.815385 0 19.692308 7.876923 19.692308 19.692307v275.692308z m196.923077 0c0 11.815385-7.876923 19.692308-19.692308 19.692308h-39.384615c-11.815385 0-19.692308-7.876923-19.692308-19.692308V551.384615c0-11.815385 7.876923-19.692308 19.692308-19.692307h39.384615c11.815385 0 19.692308 7.876923 19.692308 19.692307v275.692308z" p-id="3711"></path></svg>