<?xml version="1.0" standalone="no"?><!DOCTYPE svg PUBLIC "-//W3C//DTD SVG 1.1//EN" "http://www.w3.org/Graphics/SVG/1.1/DTD/svg11.dtd"><svg t="1655722836641" class="icon" viewBox="0 0 1029 1024" version="1.1" xmlns="http://www.w3.org/2000/svg" p-id="1618" xmlns:xlink="http://www.w3.org/1999/xlink" width="128.625" height="128"><defs><style type="text/css">@font-face { font-family: element-icons; src: url("chrome-extension://moombeodfomdpjnpocobemoiaemednkg/fonts/element-icons.woff") format("woff"), url("chrome-extension://moombeodfomdpjnpocobemoiaemednkg/fonts/element-icons.ttf ") format("truetype"); }
@font-face { font-family: feedback-iconfont; src: url("//at.alicdn.com/t/font_1031158_u69w8yhxdu.woff2?t=1630033759944") format("woff2"), url("//at.alicdn.com/t/font_1031158_u69w8yhxdu.woff?t=1630033759944") format("woff"), url("//at.alicdn.com/t/font_1031158_u69w8yhxdu.ttf?t=1630033759944") format("truetype"); }
</style></defs><path d="M259.3792 385.3312m-170.5984 0a170.5984 170.5984 0 1 0 341.1968 0 170.5984 170.5984 0 1 0-341.1968 0Z" fill="#03F9AD" p-id="1619"></path><path d="M403.968 568.4224m-170.5984 0a170.5984 170.5984 0 1 0 341.1968 0 170.5984 170.5984 0 1 0-341.1968 0Z" fill="#F9F90B" p-id="1620"></path><path d="M631.3984 622.2848m-88.6784 0a88.6784 88.6784 0 1 0 177.3568 0 88.6784 88.6784 0 1 0-177.3568 0Z" fill="#0FF420" p-id="1621"></path><path d="M753.0496 565.248m-88.6784 0a88.6784 88.6784 0 1 0 177.3568 0 88.6784 88.6784 0 1 0-177.3568 0Z" fill="#DA0DF7" p-id="1622"></path><path d="M594.0224 369.3568m-223.0272 0a223.0272 223.0272 0 1 0 446.0544 0 223.0272 223.0272 0 1 0-446.0544 0Z" fill="#FF0000" p-id="1623"></path><path d="M901.12 1024h-778.24c-67.584 0-122.88-55.296-122.88-122.88V122.88c0-67.584 55.296-122.88 122.88-122.88h778.24c67.584 0 122.88 55.296 122.88 122.88v778.24c0 67.584-55.296 122.88-122.88 122.88z" fill="#070103" p-id="1624"></path><path d="M829.44 268.0832c-89.7024-0.1024-162.304-72.8064-162.304-162.4064 0-1.024 0.1024-2.048 0.1024-3.072h-72.4992v-19.456c-0.7168 7.3728-1.1264 14.9504-1.1264 22.528s0.4096 15.0528 1.1264 22.528v576.7168h-1.7408c0 89.7024-72.704 162.4064-162.4064 162.4064s-162.4064-72.704-162.4064-162.4064 72.704-162.4064 162.4064-162.4064c36.7616 0 70.5536 12.1856 97.792 32.768v-85.0944a234.496 234.496 0 0 0-97.792-21.1968c-130.3552 0-235.9296 105.6768-235.9296 235.9296 0 130.3552 105.6768 235.9296 235.9296 235.9296s235.9296-105.6768 235.9296-235.9296c0-0.7168 0-1.4336-0.1024-2.1504h0.1024V276.1728a235.4176 235.4176 0 0 0 162.9184 65.536v-73.6256z" fill="#FFFFFF" p-id="1625"></path></svg>