<?xml version="1.0" standalone="no"?><!DOCTYPE svg PUBLIC "-//W3C//DTD SVG 1.1//EN" "http://www.w3.org/Graphics/SVG/1.1/DTD/svg11.dtd"><svg t="1655522239446" class="icon" viewBox="0 0 1024 1024" version="1.1" xmlns="http://www.w3.org/2000/svg" p-id="6188" xmlns:xlink="http://www.w3.org/1999/xlink" width="128" height="128"><defs><style type="text/css">@font-face { font-family: element-icons; src: url("chrome-extension://moombeodfomdpjnpocobemoiaemednkg/fonts/element-icons.woff") format("woff"), url("chrome-extension://moombeodfomdpjnpocobemoiaemednkg/fonts/element-icons.ttf ") format("truetype"); }
@font-face { font-family: feedback-iconfont; src: url("//at.alicdn.com/t/font_1031158_u69w8yhxdu.woff2?t=1630033759944") format("woff2"), url("//at.alicdn.com/t/font_1031158_u69w8yhxdu.woff?t=1630033759944") format("woff"), url("//at.alicdn.com/t/font_1031158_u69w8yhxdu.ttf?t=1630033759944") format("truetype"); }
</style></defs><path d="M874.666667 128H149.333333c-59.733333 0-106.666667 46.933333-106.666666 106.666667v554.666666c0 59.733333 46.933333 106.666667 106.666666 106.666667h725.333334c59.733333 0 106.666667-46.933333 106.666666-106.666667V234.666667c0-59.733333-46.933333-106.666667-106.666666-106.666667z m17.066666 153.6L576 569.6c-19.2 17.066667-40.533333 25.6-64 25.6s-44.8-8.533333-64-25.6L132.266667 281.6c-17.066667-14.933333-19.2-42.666667-2.133334-59.733333 14.933333-17.066667 42.666667-19.2 59.733334-2.133334l317.866666 288c4.266667 4.266667 8.533333 4.266667 12.8 0l317.866667-288c17.066667-14.933333 44.8-14.933333 59.733333 2.133334 12.8 17.066667 12.8 44.8-6.4 59.733333z" fill="#80B8F8" p-id="6189"></path></svg>