<?xml version="1.0" standalone="no"?><!DOCTYPE svg PUBLIC "-//W3C//DTD SVG 1.1//EN" "http://www.w3.org/Graphics/SVG/1.1/DTD/svg11.dtd"><svg t="1655806933568" class="icon" viewBox="0 0 1024 1024" version="1.1" xmlns="http://www.w3.org/2000/svg" p-id="5010" xmlns:xlink="http://www.w3.org/1999/xlink" width="128" height="128"><defs><style type="text/css">@font-face { font-family: element-icons; src: url("chrome-extension://moombeodfomdpjnpocobemoiaemednkg/fonts/element-icons.woff") format("woff"), url("chrome-extension://moombeodfomdpjnpocobemoiaemednkg/fonts/element-icons.ttf ") format("truetype"); }
@font-face { font-family: feedback-iconfont; src: url("//at.alicdn.com/t/font_1031158_u69w8yhxdu.woff2?t=1630033759944") format("woff2"), url("//at.alicdn.com/t/font_1031158_u69w8yhxdu.woff?t=1630033759944") format("woff"), url("//at.alicdn.com/t/font_1031158_u69w8yhxdu.ttf?t=1630033759944") format("truetype"); }
</style></defs><path d="M547.072 543.5904m-400.1792 0a400.1792 400.1792 0 1 0 800.3584 0 400.1792 400.1792 0 1 0-800.3584 0Z" fill="#FFAC48" p-id="5011"></path><path d="M654.0288 157.952c70.8096 53.3504 232.8064 196.7104 215.808 423.0144-4.9152 54.016-58.7776 277.9136-326.0928 362.7008 1.1264 0 2.2016 0.1024 3.328 0.1024 221.0304 0 400.1792-179.1488 400.1792-400.1792 0-183.9616-124.16-338.8416-293.2224-385.6384z" fill="#FC992D" p-id="5012"></path><path d="M514.2528 959.1296c-247.2448 0-448.3584-201.1136-448.3584-448.3584 0-20.2752 1.3824-40.6016 4.0448-60.5184a15.3088 15.3088 0 0 1 17.2544-13.1584c8.3968 1.1264 14.2848 8.8576 13.1584 17.2544-2.5088 18.5344-3.7888 37.5296-3.7888 56.4224 0 230.2976 187.3408 417.6384 417.6384 417.6384S931.84 741.0688 931.84 510.7712s-187.3408-417.6384-417.6384-417.6384c-139.4688 0-269.2096 69.2224-347.0336 185.1904a15.3856 15.3856 0 0 1-21.2992 4.1984 15.33952 15.33952 0 0 1-4.1984-21.2992C225.28 136.7552 364.544 62.4128 514.2528 62.4128c247.2448 0 448.3584 201.1136 448.3584 448.3584 0 247.2448-201.1136 448.3584-448.3584 448.3584z" fill="#333333" p-id="5013"></path><path d="M101.12 396.1344c-1.536 0-3.072-0.2048-4.608-0.7168a15.34464 15.34464 0 0 1-10.0352-19.2512c1.6896-5.4272 3.5328-10.8544 5.4272-16.1792a15.3856 15.3856 0 0 1 19.6096-9.3184c7.9872 2.8672 12.1344 11.6224 9.3184 19.6096-1.792 4.9664-3.4816 10.0352-5.0688 15.104-2.048 6.5536-8.1408 10.752-14.6432 10.752z" fill="#333333" p-id="5014"></path><path d="M497.3056 212.6848s4.3008 153.3952-85.1456 233.4208c-18.8416-58.0096-44.0832-75.6224-44.0832-75.6224s-16.7424 79.104-48.3328 141.9776c-41.6256 82.7392-5.3248 298.4448 222.7712 298.4448 192.4608 0 271.3088-153.088 270.4384-251.0848-0.8704-98.048-57.1392-202.5472-137.1648-257.0752 10.2912 51.8656-27.8016 113.8688-27.8016 113.8688s-3.8912-130.9184-150.6816-203.9296z" fill="#FF6339" p-id="5015"></path><path d="M812.9024 559.872c-0.8704-98.048-57.1392-202.5472-137.1648-257.0752 3.3792 17.152 1.4848 35.4304-2.56 52.224 42.5472 69.0688 184.576 337.5616-97.9968 454.3488 168.704-16.2304 238.5408-157.2352 237.7216-249.4976zM628.992 489.3696c12.4416-22.0672 18.7392-49.8688 18.9952-72.704 0 0-3.84-130.9696-150.6304-203.9808 0 0 0.3584 13.9776-1.536 35.6352 31.488 26.1632 114.8928 106.9056 133.1712 241.0496z" fill="#F94A21" p-id="5016"></path><path d="M512.512 843.9808c-88.3712 0-161.4848-28.0576-211.5584-81.1008a15.36 15.36 0 0 1 0.6144-21.7088 15.4112 15.4112 0 0 1 21.7088 0.6144c44.7488 47.4112 108.3904 71.4752 189.2352 71.4752 85.3504 0 158.1568-27.9552 210.5344-80.8448 56.6784-57.1904 76.4416-128.7168 76.032-176.5888-0.8192-90.2656-49.3568-187.8528-120.8832-247.7568-4.0448 50.7392-33.3824 97.792-34.9184 100.1984a15.31904 15.31904 0 0 1-17.0496 6.6048 15.4112 15.4112 0 0 1-11.3152-14.336c-0.2048-5.12-5.9904-121.9584-138.0352-197.0176-2.8672 51.7632-18.5856 169.472-99.7888 240.1792-3.8912 3.3792-9.1648 4.5568-14.1312 3.2256-4.9664-1.3312-8.9088-5.0688-10.5472-9.984-8.6528-25.9584-18.5344-43.776-26.6752-55.4496-8.5504 31.5904-24.7296 84.1216-48.3328 129.792-17.152 33.1776-23.6032 98.3552 2.7648 163.0208 3.2256 7.8336-0.5632 16.8448-8.448 20.0192-7.8848 3.1744-16.8448-0.5632-20.0192-8.448-26.1632-64.1024-26.7776-139.9808-1.5872-188.7232 33.9456-65.6384 52.4288-149.6576 52.6336-150.528 1.0752-4.9664 4.5568-9.1136 9.3184-11.008 4.7616-1.8944 10.0864-1.3312 14.336 1.536 2.9184 1.9968 26.1632 18.8416 46.6944 67.4304 76.4928-84.224 73.6768-224.3072 73.6256-225.792-0.1536-5.376 2.5088-10.3936 7.0144-13.312 4.5056-2.9184 10.1888-3.2768 15.0016-0.9216 111.4112 53.9136 152.6784 135.2704 167.8848 186.7776 7.9872-21.4528 14.3872-48.1792 9.5744-71.936a15.4624 15.4624 0 0 1 6.4512-15.8208c5.1712-3.4816 11.8784-3.4816 17.0496-0.0512 94.6688 62.7712 158.976 180.1216 160 292.0448 0.4608 54.016-21.5552 134.5536-84.8896 198.4512-58.2144 58.88-138.5984 89.9584-232.2944 89.9584z" fill="#333333" p-id="5017"></path><path d="M376.4736 690.7904c-3.84 0-7.5776-1.6896-10.1376-4.9152a144.4352 144.4352 0 0 1-10.0352-14.7968 12.78976 12.78976 0 1 1 22.0672-12.9536c2.4576 4.1472 5.2224 8.2432 8.192 12.032a12.8 12.8 0 0 1-2.2528 17.9712c-2.3552 1.792-5.12 2.6624-7.8336 2.6624z" fill="#FFFFFF" p-id="5018"></path><path d="M351.3344 636.16c-5.888 0-11.1616-4.0448-12.4928-10.0352-10.752-48.0256 0.6656-91.5968 1.1264-93.44a12.81536 12.81536 0 0 1 15.6672-9.0624c6.8096 1.8432 10.9056 8.8576 9.0624 15.6672-0.2048 0.6656-10.1888 39.68-0.8704 81.2544 1.536 6.912-2.816 13.7216-9.6768 15.3088-0.9216 0.2048-1.8944 0.3072-2.816 0.3072z" fill="#FFFFFF" p-id="5019"></path></svg>