<?xml version="1.0" standalone="no"?><!DOCTYPE svg PUBLIC "-//W3C//DTD SVG 1.1//EN" "http://www.w3.org/Graphics/SVG/1.1/DTD/svg11.dtd"><svg t="1655275481571" class="icon" viewBox="0 0 1024 1024" version="1.1" xmlns="http://www.w3.org/2000/svg" p-id="20986" xmlns:xlink="http://www.w3.org/1999/xlink" width="128" height="128"><defs><style type="text/css">@font-face { font-family: element-icons; src: url("chrome-extension://moombeodfomdpjnpocobemoiaemednkg/fonts/element-icons.woff") format("woff"), url("chrome-extension://moombeodfomdpjnpocobemoiaemednkg/fonts/element-icons.ttf ") format("truetype"); }
@font-face { font-family: feedback-iconfont; src: url("//at.alicdn.com/t/font_1031158_u69w8yhxdu.woff2?t=1630033759944") format("woff2"), url("//at.alicdn.com/t/font_1031158_u69w8yhxdu.woff?t=1630033759944") format("woff"), url("//at.alicdn.com/t/font_1031158_u69w8yhxdu.ttf?t=1630033759944") format("truetype"); }
</style></defs><path d="M509.952 927.744c-6.144 0-12.288-2.048-18.432-8.192L262.144 690.176c-100.352-100.352-129.024-249.856-75.776-380.928C241.664 178.176 368.64 92.16 509.952 92.16S778.24 178.176 833.536 309.248c53.248 131.072 24.576 280.576-75.776 380.928L528.384 919.552c-6.144 4.096-12.288 8.192-18.432 8.192z m0-784.384c-120.832 0-229.376 73.728-276.48 184.32-47.104 110.592-20.48 239.616 63.488 325.632l212.992 210.944 212.992-212.992c86.016-86.016 110.592-215.04 63.488-325.632C739.328 215.04 630.784 143.36 509.952 143.36z m0 0" fill="var(--h2-color)" p-id="20987"></path><path d="M382.976 323.584h51.2v280.576h-51.2V323.584z m200.704 278.528H532.48V348.16c0-14.336 12.288-24.576 24.576-24.576h55.296c49.152 0 88.064 38.912 88.064 88.064s-38.912 88.064-88.064 88.064h-28.672v102.4z m0-151.552h28.672c20.48 0 36.864-16.384 36.864-36.864s-16.384-36.864-36.864-36.864h-28.672V450.56z m0 0" fill="var(--h2-color)" p-id="20988"></path></svg>