<?xml version="1.0" standalone="no"?><!DOCTYPE svg PUBLIC "-//W3C//DTD SVG 1.1//EN" "http://www.w3.org/Graphics/SVG/1.1/DTD/svg11.dtd"><svg t="1655443052069" class="icon" viewBox="0 0 1024 1024" version="1.1" xmlns="http://www.w3.org/2000/svg" p-id="2855" xmlns:xlink="http://www.w3.org/1999/xlink" width="128" height="128"><defs><style type="text/css">@font-face { font-family: element-icons; src: url("chrome-extension://moombeodfomdpjnpocobemoiaemednkg/fonts/element-icons.woff") format("woff"), url("chrome-extension://moombeodfomdpjnpocobemoiaemednkg/fonts/element-icons.ttf ") format("truetype"); }
@font-face { font-family: feedback-iconfont; src: url("//at.alicdn.com/t/font_1031158_u69w8yhxdu.woff2?t=1630033759944") format("woff2"), url("//at.alicdn.com/t/font_1031158_u69w8yhxdu.woff?t=1630033759944") format("woff"), url("//at.alicdn.com/t/font_1031158_u69w8yhxdu.ttf?t=1630033759944") format("truetype"); }
</style></defs><path d="M841.16024889 427.60192h-72.61297778V258.04003555c0-142.07431111-115.03616-257.53827555-256.55523556-257.53827555-141.50769778 0-256.66901333 115.46396445-256.66901333 257.53827555v169.56188445h-72.55608889c-35.00259555 0-63.35943111 28.47402667-63.35943111 63.61201778v464.33848889c0 35.18691555 28.35683555 63.67118222 63.35943111 63.67118222H841.22737778c35.00259555 0 63.36284445-28.48426667 63.36284444-63.67004444V491.2128c0-35.13799111-28.35911111-63.61315555-63.42997333-63.61315555z m-293.59217778 307.89859555v101.35779556c0 4.53973333-3.73873778 8.39338667-8.27847111 8.39338667h-54.52231111c-4.608 0-8.33536-3.85365333-8.33536-8.39338667v-101.35779556c-25.61479111-13.17546667-43.33909333-39.4752-43.33909334-70.31466666 0-43.71683555 35.3792-79.22119111 78.90033778-79.22119111 43.53365333 0 78.84686222 35.50435555 78.84686222 79.22005333 0.12174222 30.84060445-17.65831111 57.14033778-43.27310222 70.31466667z m122.48177778-307.89859555H353.93991111V262.20885333c0-87.48373333 71.00984889-158.67676445 158.12152889-158.67676444 87.16970667 0 157.98613333 71.19303111 157.98613333 158.67676444v165.39306667z" fill="#8290A3" p-id="2856"></path></svg>