<?xml version="1.0" standalone="no"?><!DOCTYPE svg PUBLIC "-//W3C//DTD SVG 1.1//EN" "http://www.w3.org/Graphics/SVG/1.1/DTD/svg11.dtd"><svg t="1654929465818" class="icon" viewBox="0 0 1024 1024" version="1.1" xmlns="http://www.w3.org/2000/svg" p-id="33377" xmlns:xlink="http://www.w3.org/1999/xlink" width="128" height="128"><defs><style type="text/css">@font-face { font-family: element-icons; src: url("chrome-extension://moombeodfomdpjnpocobemoiaemednkg/fonts/element-icons.woff") format("woff"), url("chrome-extension://moombeodfomdpjnpocobemoiaemednkg/fonts/element-icons.ttf ") format("truetype"); }
@font-face { font-family: feedback-iconfont; src: url("//at.alicdn.com/t/font_1031158_u69w8yhxdu.woff2?t=1630033759944") format("woff2"), url("//at.alicdn.com/t/font_1031158_u69w8yhxdu.woff?t=1630033759944") format("woff"), url("//at.alicdn.com/t/font_1031158_u69w8yhxdu.ttf?t=1630033759944") format("truetype"); }
</style></defs><path d="M512 0C229.2 0 0 229.2 0 512s229.2 512 512 512 512-229.2 512-512S794.8 0 512 0z" fill="#BFE7FF" p-id="33378"></path><path d="M303.2 329.111c0-81.8 66.3-148.1 148.2-148.1s148.1 66.3 148.1 148.1-66.3 148.1-148.1 148.1-148.2-66.3-148.2-148.1zM112 672.011c0 30.8 12.3 60.4 34.1 82.2 21.8 21.8 51.4 34.1 82.2 34.1h446.1c30.8 0 60.4-12.3 82.2-34.1 21.8-21.8 34.1-51.4 34.1-82.2v-59c0-36-16.7-70-45.2-92a116.4 116.4 0 0 0-100.5-20.5l-170.2 44.4c-15 3.9-30.8 3.9-45.8 0l-171.4-44.6c-34.8-9.1-71.9-1.5-100.4 20.6-28.5 22-45.2 56-45.2 92v59.1z" fill="#FFFFFF" p-id="33379"></path><path d="M829.2 746.911l-24-24 63-63H605.8v-34h265.1l-65.1-59.1 22.8-25.2 108 97.9z" fill="#34D47E" p-id="33380"></path></svg>