<?xml version="1.0" standalone="no"?><!DOCTYPE svg PUBLIC "-//W3C//DTD SVG 1.1//EN" "http://www.w3.org/Graphics/SVG/1.1/DTD/svg11.dtd"><svg t="1655521604785" class="icon" viewBox="0 0 1024 1024" version="1.1" xmlns="http://www.w3.org/2000/svg" p-id="4300" xmlns:xlink="http://www.w3.org/1999/xlink" width="128" height="128"><defs><style type="text/css">@font-face { font-family: element-icons; src: url("chrome-extension://moombeodfomdpjnpocobemoiaemednkg/fonts/element-icons.woff") format("woff"), url("chrome-extension://moombeodfomdpjnpocobemoiaemednkg/fonts/element-icons.ttf ") format("truetype"); }
@font-face { font-family: feedback-iconfont; src: url("//at.alicdn.com/t/font_1031158_u69w8yhxdu.woff2?t=1630033759944") format("woff2"), url("//at.alicdn.com/t/font_1031158_u69w8yhxdu.woff?t=1630033759944") format("woff"), url("//at.alicdn.com/t/font_1031158_u69w8yhxdu.ttf?t=1630033759944") format("truetype"); }
</style></defs><path d="M505.088 514.7136m-450.816 0a450.816 450.816 0 1 0 901.632 0 450.816 450.816 0 1 0-901.632 0Z" fill="#f9f28b" p-id="4301" data-spm-anchor-id="a313x.7781069.0.i3" class="selected"></path><path d="M454.5536 231.68c-156.8256 0-283.9552 115.7632-283.9552 258.6112 0 55.7056 19.3536 107.264 52.224 149.4528 2.9696 3.84 4.6592 8.448 4.6592 13.312v87.808c0 15.7696 16.5376 26.112 30.72 19.1488l65.4848-32.0512c5.3248-2.6112 11.52-2.9696 16.9984-0.768 34.8672 13.9264 73.3696 21.6576 113.8688 21.6576 156.8256 0 283.9552-115.7632 283.9552-258.6112 0.0512-142.7456-127.0784-258.56-283.9552-258.56zM323.9424 411.5968h185.7536c17.9712 0 32.512 14.5408 32.512 32.512s-14.5408 32.512-32.512 32.512H323.9424c-17.9712 0-32.512-14.5408-32.512-32.512s14.592-32.512 32.512-32.512z m267.3664 178.432H323.9424c-17.9712 0-32.512-14.5408-32.512-32.512s14.5408-32.512 32.512-32.512h267.3152c17.9712 0 32.512 14.5408 32.512 32.512s-14.5408 32.512-32.4608 32.512z" fill="#FF8E12" p-id="4302"></path><path d="M654.3872 779.3664c-13.1072 0-24.7808-9.2672-27.3408-22.6304a27.84768 27.84768 0 0 1 22.1184-32.6144c38.144-7.3216 56.064-22.1184 58.0608-23.808 7.0144-7.424 16.896-9.6768 26.8288-7.0144l27.4432 7.424v-43.6224c0-6.2464 2.0992-12.288 5.9392-17.2032 46.6432-59.5456 16.7936-139.7248 16.4864-140.544-5.4784-14.336 1.6384-30.464 15.9744-35.9936 14.336-5.5296 30.4128 1.4848 35.9936 15.7696 1.6896 4.3008 39.5264 103.68-18.5856 187.0848v70.8608c0 8.704-4.0448 16.8448-10.9568 22.1184a27.93984 27.93984 0 0 1-24.2176 4.7616l-49.3568-13.3632c-13.5168 9.0112-37.2736 21.2992-73.0624 28.16-1.8432 0.4096-3.584 0.6144-5.3248 0.6144z" fill="#FF8E12" p-id="4303"></path><path d="M699.0848 358.8096c-49.4592-76.0832-140.3904-127.1296-244.48-127.1296-156.8256 0-283.9552 115.7632-283.9552 258.6112 0 55.7056 19.3536 107.264 52.224 149.4528 2.9696 3.84 4.6592 8.448 4.6592 13.312v87.808c0 15.7696 16.5376 26.112 30.72 19.1488l65.4848-32.0512c5.3248-2.6112 11.52-2.9696 16.9984-0.768 28.5696 11.4176 59.648 18.5856 92.2112 20.8384 154.368-62.5664 263.68-212.9408 266.1376-389.2224zM323.9424 411.5968h185.7536c17.9712 0 32.512 14.5408 32.512 32.512s-14.5408 32.512-32.512 32.512H323.9424c-17.9712 0-32.512-14.5408-32.512-32.512s14.592-32.512 32.512-32.512z m0 178.432c-17.9712 0-32.512-14.5408-32.512-32.512s14.5408-32.512 32.512-32.512h267.3152c17.9712 0 32.512 14.5408 32.512 32.512s-14.5408 32.512-32.512 32.512H323.9424z" fill="#FCA315" p-id="4304"></path><path d="M170.5984 490.2912c0 48.9984 15.0016 94.7712 40.96 133.8368a422.02112 422.02112 0 0 0 120.0128-34.0992h-7.6288c-17.9712 0-32.512-14.5408-32.512-32.512s14.5408-32.512 32.512-32.512H433.664c17.2544-14.7968 33.3312-30.976 48.0256-48.3328H323.9424c-17.9712 0-32.512-14.5408-32.512-32.512s14.5408-32.512 32.512-32.512h185.7536c5.5296 0 10.7008 1.3824 15.2576 3.7888 27.648-47.5136 46.336-100.8128 53.8112-157.696-37.5296-16.64-79.6672-26.0096-124.2112-26.0096-156.8256-0.0512-283.9552 115.7632-283.9552 258.56z" fill="#FCB138" p-id="4305"></path><path d="M172.8 458.5472c115.8656-35.1232 210.7904-118.2208 261.7856-226.1504-135.8848 8.6016-245.4016 104.2432-261.7856 226.1504z" fill="#FFC65E" p-id="4306"></path></svg>