<?xml version="1.0" standalone="no"?><!DOCTYPE svg PUBLIC "-//W3C//DTD SVG 1.1//EN" "http://www.w3.org/Graphics/SVG/1.1/DTD/svg11.dtd"><svg t="1656215801273" class="icon" viewBox="0 0 1171 1024" version="1.1" xmlns="http://www.w3.org/2000/svg" p-id="2546" xmlns:xlink="http://www.w3.org/1999/xlink" width="146.375" height="128"><defs><style type="text/css">@font-face { font-family: element-icons; src: url("chrome-extension://moombeodfomdpjnpocobemoiaemednkg/fonts/element-icons.woff") format("woff"), url("chrome-extension://moombeodfomdpjnpocobemoiaemednkg/fonts/element-icons.ttf ") format("truetype"); }
@font-face { font-family: feedback-iconfont; src: url("//at.alicdn.com/t/font_1031158_u69w8yhxdu.woff2?t=1630033759944") format("woff2"), url("//at.alicdn.com/t/font_1031158_u69w8yhxdu.woff?t=1630033759944") format("woff"), url("//at.alicdn.com/t/font_1031158_u69w8yhxdu.ttf?t=1630033759944") format("truetype"); }
</style></defs><path d="M1121.735895 0.618582a49.486529 49.486529 0 0 0-49.486529 49.486529v923.789778a49.486529 49.486529 0 0 0 98.973058 0V50.105111a49.486529 49.486529 0 0 0-49.486529-49.486529zM831.621119 341.333333L298.280053 27.58874l-9.649873-5.319802A197.946116 197.946116 0 0 0 0 197.946116v638.871088a197.946116 197.946116 0 0 0 298.280053 159.47034l533.341066-313.744594 11.134469-7.05183a197.946116 197.946116 0 0 0-11.134469-334.157787z m-49.486529 255.969071L248.051226 911.046998a98.973058 98.973058 0 0 1-148.459587-85.364263V197.946116a98.973058 98.973058 0 0 1 148.459587-84.993114l533.464782 313.744594a98.973058 98.973058 0 0 1 0 170.604808z" p-id="2547" fill="var(--h2-color)"></path></svg>