<?xml version="1.0" standalone="no"?><!DOCTYPE svg PUBLIC "-//W3C//DTD SVG 1.1//EN" "http://www.w3.org/Graphics/SVG/1.1/DTD/svg11.dtd"><svg t="1655277745246" class="icon" viewBox="0 0 1024 1024" version="1.1" xmlns="http://www.w3.org/2000/svg" p-id="22011" xmlns:xlink="http://www.w3.org/1999/xlink" width="128" height="128"><defs><style type="text/css">@font-face { font-family: element-icons; src: url("chrome-extension://moombeodfomdpjnpocobemoiaemednkg/fonts/element-icons.woff") format("woff"), url("chrome-extension://moombeodfomdpjnpocobemoiaemednkg/fonts/element-icons.ttf ") format("truetype"); }
@font-face { font-family: feedback-iconfont; src: url("//at.alicdn.com/t/font_1031158_u69w8yhxdu.woff2?t=1630033759944") format("woff2"), url("//at.alicdn.com/t/font_1031158_u69w8yhxdu.woff?t=1630033759944") format("woff"), url("//at.alicdn.com/t/font_1031158_u69w8yhxdu.ttf?t=1630033759944") format("truetype"); }
</style></defs><path d="M399.146667 339.626667c-21.12 0-37.76 7.893333-49.92 23.466666s-18.133333 36.053333-18.133334 61.013334c0 24.533333 5.973333 44.8 17.706667 60.373333 11.733333 15.573333 28.16 23.466667 48.853333 23.466667 21.12 0 37.546667-7.466667 49.28-22.4 11.733333-14.933333 17.706667-34.986667 17.706667-60.373334 0-26.453333-5.76-47.146667-17.066667-62.506666-11.52-15.36-27.52-23.04-48.426666-23.04z" p-id="22012"></path><path d="M832 106.666667H192C144.853333 106.666667 106.666667 144.853333 106.666667 192v469.333333c0 47.146667 38.186667 85.333333 85.333333 85.333334h213.333333l-42.666666 106.666666h-74.666667c-17.706667 0-32 14.293333-32 32s14.293333 32 32 32h448c17.706667 0 32-14.293333 32-32s-14.293333-32-32-32H661.333333l-42.666666-106.666666h213.333333c47.146667 0 85.333333-38.186667 85.333333-85.333334V192c0-47.146667-38.186667-85.333333-85.333333-85.333333zM396.8 554.666667c-36.266667 0-65.706667-11.946667-88.32-35.626667-22.613333-23.893333-33.92-54.4-33.92-91.946667 0-39.68 11.52-71.893333 34.773333-96.853333 23.04-24.96 53.76-37.333333 91.733334-37.333333 36.053333 0 65.28 11.946667 87.253333 36.053333s33.066667 55.04 33.066667 92.8c0 39.466667-11.52 71.466667-34.346667 96C463.786667 542.293333 433.92 554.666667 396.8 554.666667z m300.16-19.2c-17.28 12.8-41.6 19.2-73.386667 19.2-29.013333 0-52.693333-4.693333-71.253333-14.08v-53.973334c20.266667 16.853333 43.52 25.386667 69.333333 25.386667 14.72 0 25.813333-2.56 33.066667-7.68 7.466667-5.12 11.093333-11.52 11.093333-19.413333 0-6.826667-2.986667-13.44-8.746666-19.413334s-21.333333-14.293333-46.506667-24.746666c-39.466667-16.853333-59.306667-41.173333-59.306667-73.173334 0-23.466667 8.96-41.813333 26.88-54.826666s41.6-19.413333 71.04-19.413334c24.746667 0 45.44 3.2 62.293334 9.6v50.56c-17.066667-11.52-36.906667-17.28-59.52-17.28-13.226667 0-23.893333 2.346667-31.786667 7.253334-7.893333 4.906667-11.946667 11.306667-11.946667 19.413333 0 6.613333 2.773333 12.586667 8.106667 18.133333 5.546667 5.546667 18.986667 13.013333 40.32 22.4 25.173333 10.88 42.453333 22.186667 51.84 34.133334s14.08 26.24 14.08 42.88c0.213333 23.893333-8.533333 42.453333-25.6 55.04z" p-id="22013"></path></svg>