<?xml version="1.0" standalone="no"?><!DOCTYPE svg PUBLIC "-//W3C//DTD SVG 1.1//EN" "http://www.w3.org/Graphics/SVG/1.1/DTD/svg11.dtd"><svg t="1656225164716" class="icon" viewBox="0 0 1024 1024" version="1.1" xmlns="http://www.w3.org/2000/svg" p-id="19098" xmlns:xlink="http://www.w3.org/1999/xlink" width="128" height="128"><defs><style type="text/css">@font-face { font-family: element-icons; src: url("chrome-extension://moombeodfomdpjnpocobemoiaemednkg/fonts/element-icons.woff") format("woff"), url("chrome-extension://moombeodfomdpjnpocobemoiaemednkg/fonts/element-icons.ttf ") format("truetype"); }
@font-face { font-family: feedback-iconfont; src: url("//at.alicdn.com/t/font_1031158_u69w8yhxdu.woff2?t=1630033759944") format("woff2"), url("//at.alicdn.com/t/font_1031158_u69w8yhxdu.woff?t=1630033759944") format("woff"), url("//at.alicdn.com/t/font_1031158_u69w8yhxdu.ttf?t=1630033759944") format("truetype"); }
</style></defs><path d="M512 0C229.376 0 0 229.376 0 512s229.376 512 512 512 512-229.376 512-512S794.624 0 512 0z m0 942.08c-237.568 0-430.08-192.512-430.08-430.08s192.512-430.08 430.08-430.08 430.08 192.512 430.08 430.08-192.512 430.08-430.08 430.08z" p-id="19099" data-spm-anchor-id="a313x.7781069.0.i28" class="selected" fill="var(--h2-color)"></path><path d="M409.6 675.84c-22.528 0-40.96-18.432-40.96-40.96V389.12c0-22.528 18.432-40.96 40.96-40.96s40.96 18.432 40.96 40.96v245.76c0 22.528-18.432 40.96-40.96 40.96zM614.4 675.84c-22.528 0-40.96-18.432-40.96-40.96V389.12c0-22.528 18.432-40.96 40.96-40.96s40.96 18.432 40.96 40.96v245.76c0 22.528-18.432 40.96-40.96 40.96z" p-id="19100" data-spm-anchor-id="a313x.7781069.0.i29" class="selected" fill="var(--h2-color)"></path></svg>