<?xml version="1.0" standalone="no"?><!DOCTYPE svg PUBLIC "-//W3C//DTD SVG 1.1//EN" "http://www.w3.org/Graphics/SVG/1.1/DTD/svg11.dtd"><svg t="1656239640699" class="icon" viewBox="0 0 1024 1024" version="1.1" xmlns="http://www.w3.org/2000/svg" p-id="2200" xmlns:xlink="http://www.w3.org/1999/xlink" width="128" height="128"><defs><style type="text/css">@font-face { font-family: element-icons; src: url("chrome-extension://moombeodfomdpjnpocobemoiaemednkg/fonts/element-icons.woff") format("woff"), url("chrome-extension://moombeodfomdpjnpocobemoiaemednkg/fonts/element-icons.ttf ") format("truetype"); }
@font-face { font-family: feedback-iconfont; src: url("//at.alicdn.com/t/font_1031158_u69w8yhxdu.woff2?t=1630033759944") format("woff2"), url("//at.alicdn.com/t/font_1031158_u69w8yhxdu.woff?t=1630033759944") format("woff"), url("//at.alicdn.com/t/font_1031158_u69w8yhxdu.ttf?t=1630033759944") format("truetype"); }
</style></defs><path d="M554.666667 703.701333C554.666667 786.218667 621.781333 853.333333 704.298667 853.333333s149.632-67.114667 149.632-149.632c0-7.552-1.152-14.805333-2.261334-22.058666H853.333333V256h85.333334V170.666667h-128a42.666667 42.666667 0 0 0-42.666667 42.666666v355.541334a147.84 147.84 0 0 0-63.701333-14.762667A149.76 149.76 0 0 0 554.666667 703.701333z m149.632-64.298666c35.456 0 64.298667 28.842667 64.298666 64.298666S739.754667 768 704.298667 768 640 739.157333 640 703.701333s28.842667-64.298667 64.298667-64.298666zM85.333333 213.333333h597.333334v85.333334H85.333333z" fill="var(--h2-color)" p-id="2201" data-spm-anchor-id="a313x.7781069.0.i1" class="selected"></path><path d="M85.333333 384h597.333334v85.333333H85.333333z m0 170.666667h384v85.333333H85.333333z m0 170.666666h384v85.333334H85.333333z" fill="var(--h2-color)" p-id="2202" data-spm-anchor-id="a313x.7781069.0.i0" class="selected"></path></svg>