<?xml version="1.0" standalone="no"?><!DOCTYPE svg PUBLIC "-//W3C//DTD SVG 1.1//EN" "http://www.w3.org/Graphics/SVG/1.1/DTD/svg11.dtd"><svg t="1656215810680" class="icon" viewBox="0 0 1171 1024" version="1.1" xmlns="http://www.w3.org/2000/svg" p-id="3011" xmlns:xlink="http://www.w3.org/1999/xlink" width="146.375" height="128"><defs><style type="text/css">@font-face { font-family: element-icons; src: url("chrome-extension://moombeodfomdpjnpocobemoiaemednkg/fonts/element-icons.woff") format("woff"), url("chrome-extension://moombeodfomdpjnpocobemoiaemednkg/fonts/element-icons.ttf ") format("truetype"); }
@font-face { font-family: feedback-iconfont; src: url("//at.alicdn.com/t/font_1031158_u69w8yhxdu.woff2?t=1630033759944") format("woff2"), url("//at.alicdn.com/t/font_1031158_u69w8yhxdu.woff?t=1630033759944") format("woff"), url("//at.alicdn.com/t/font_1031158_u69w8yhxdu.ttf?t=1630033759944") format("truetype"); }
</style></defs><path d="M49.486529 0.618582a49.486529 49.486529 0 0 0-49.486529 49.486529v923.789778a49.486529 49.486529 0 0 0 98.973058 0V50.105111a49.486529 49.486529 0 0 0-49.486529-49.486529zM872.818654 27.58874l-533.217349 313.744593a197.946116 197.946116 0 0 0 0 341.333334l533.217349 313.744593a197.946116 197.946116 0 0 0 298.40377-170.728525V197.946116A197.946116 197.946116 0 0 0 872.818654 27.58874z m199.430712 798.093995v8.783859a98.973058 98.973058 0 0 1-148.459587 76.580404L389.706415 597.302404l-8.165277-5.319802a98.973058 98.973058 0 0 1 8.165277-165.285006L923.047481 112.953002l7.670412-4.082638A98.973058 98.973058 0 0 1 1072.249366 197.946116z" p-id="3012" fill="var(--h2-color)"></path></svg>