<?xml version="1.0" standalone="no"?><!DOCTYPE svg PUBLIC "-//W3C//DTD SVG 1.1//EN" "http://www.w3.org/Graphics/SVG/1.1/DTD/svg11.dtd"><svg t="1656643799874" class="icon" viewBox="0 0 1024 1024" version="1.1" xmlns="http://www.w3.org/2000/svg" p-id="12173" xmlns:xlink="http://www.w3.org/1999/xlink" width="128" height="128"><defs><style type="text/css">@font-face { font-family: element-icons; src: url("chrome-extension://moombeodfomdpjnpocobemoiaemednkg/fonts/element-icons.woff") format("woff"), url("chrome-extension://moombeodfomdpjnpocobemoiaemednkg/fonts/element-icons.ttf ") format("truetype"); }
@font-face { font-family: feedback-iconfont; src: url("//at.alicdn.com/t/font_1031158_u69w8yhxdu.woff2?t=1630033759944") format("woff2"), url("//at.alicdn.com/t/font_1031158_u69w8yhxdu.woff?t=1630033759944") format("woff"), url("//at.alicdn.com/t/font_1031158_u69w8yhxdu.ttf?t=1630033759944") format("truetype"); }
</style></defs><path d="M842.666667 85.333333A96 96 0 0 1 938.666667 181.333333v233.045334a138.666667 138.666667 0 0 1-40.618667 98.048l-362.666667 362.794666a138.88 138.88 0 0 1-196.138666 0.042667L148.864 685.226667a138.666667 138.666667 0 0 1-0.170667-196.096l362.666667-363.093334a138.666667 138.666667 0 0 1 98.133333-40.661333h233.173334z m0 64h-233.216c-19.797333 0-38.826667 7.893333-52.821334 21.888l-363.178666 363.648a74.666667 74.666667 0 0 0 0.64 105.045334l190.336 190.037333a74.88 74.88 0 0 0 105.685333 0l362.666667-362.794667a74.666667 74.666667 0 0 0 21.888-52.778666V181.333333a32 32 0 0 0-32-32zM725.333333 234.752a64 64 0 1 1 0 128 64 64 0 0 1 0-128z" p-id="12174" data-spm-anchor-id="a313x.7781069.0.i10" class="" fill="var(--theme-color)"></path></svg>