<?xml version="1.0" standalone="no"?><!DOCTYPE svg PUBLIC "-//W3C//DTD SVG 1.1//EN" "http://www.w3.org/Graphics/SVG/1.1/DTD/svg11.dtd"><svg t="1656645251907" class="icon" viewBox="0 0 1024 1024" version="1.1" xmlns="http://www.w3.org/2000/svg" p-id="6820" xmlns:xlink="http://www.w3.org/1999/xlink" width="128" height="128"><defs><style type="text/css">@font-face { font-family: element-icons; src: url("chrome-extension://moombeodfomdpjnpocobemoiaemednkg/fonts/element-icons.woff") format("woff"), url("chrome-extension://moombeodfomdpjnpocobemoiaemednkg/fonts/element-icons.ttf ") format("truetype"); }
@font-face { font-family: feedback-iconfont; src: url("//at.alicdn.com/t/font_1031158_u69w8yhxdu.woff2?t=1630033759944") format("woff2"), url("//at.alicdn.com/t/font_1031158_u69w8yhxdu.woff?t=1630033759944") format("woff"), url("//at.alicdn.com/t/font_1031158_u69w8yhxdu.ttf?t=1630033759944") format("truetype"); }
</style></defs><path d="M507.418 804.036c-303.906 0-495.422-215.584-495.422-272.772 0-57.186 191.516-309.548 495.422-309.548s508.58 235.68 508.58 309.548C1015.998 605.134 811.324 804.036 507.418 804.036zM493.75 382.34c-44.352 0-80.306 35.902-80.306 80.188 0 44.294 35.954 80.194 80.306 80.194 44.348 0 80.304-35.902 80.304-80.194C574.052 418.242 538.098 382.34 493.75 382.34zM734.876 342.196c29.32 38.928 49.212 78.41 49.212 130.836 0 128.644-104.602 232.928-233.636 232.928-129.03 0-233.63-104.284-233.63-232.928 0-79.488 15.73-128.964 76.694-170.998-192.558 28.644-313.89 183.282-313.89 225.584 0 46.318 159.466 215.118 424.322 215.118s438.268-155.286 438.268-215.118C942.216 488.736 896.93 407.214 734.876 342.196z" p-id="6821" data-spm-anchor-id="a313x.7781069.0.i9" class="selected" fill="#eeeeee"></path></svg>