<?xml version="1.0" standalone="no"?><!DOCTYPE svg PUBLIC "-//W3C//DTD SVG 1.1//EN" "http://www.w3.org/Graphics/SVG/1.1/DTD/svg11.dtd"><svg t="1656224792392" class="icon" viewBox="0 0 1024 1024" version="1.1" xmlns="http://www.w3.org/2000/svg" p-id="12512" xmlns:xlink="http://www.w3.org/1999/xlink" width="128" height="128"><defs><style type="text/css">@font-face { font-family: element-icons; src: url("chrome-extension://moombeodfomdpjnpocobemoiaemednkg/fonts/element-icons.woff") format("woff"), url("chrome-extension://moombeodfomdpjnpocobemoiaemednkg/fonts/element-icons.ttf ") format("truetype"); }
@font-face { font-family: feedback-iconfont; src: url("//at.alicdn.com/t/font_1031158_u69w8yhxdu.woff2?t=1630033759944") format("woff2"), url("//at.alicdn.com/t/font_1031158_u69w8yhxdu.woff?t=1630033759944") format("woff"), url("//at.alicdn.com/t/font_1031158_u69w8yhxdu.ttf?t=1630033759944") format("truetype"); }
</style></defs><path d="M257.493333 322.4l215.573334-133.056c24.981333-15.413333 57.877333-7.914667 73.493333 16.746667 5.301333 8.373333 8.106667 18.048 8.106667 27.914666v555.989334C554.666667 819.093333 530.784 842.666667 501.333333 842.666667c-9.994667 0-19.786667-2.773333-28.266666-8L257.493333 701.6H160c-41.237333 0-74.666667-33.013333-74.666667-73.738667V396.138667c0-40.725333 33.429333-73.738667 74.666667-73.738667h97.493333z m26.133334 58.4a32.298667 32.298667 0 0 1-16.96 4.8H160c-5.888 0-10.666667 4.714667-10.666667 10.538667v231.733333c0 5.813333 4.778667 10.538667 10.666667 10.538667h106.666667c5.994667 0 11.872 1.664 16.96 4.8L490.666667 770.986667V253.013333L283.626667 380.8zM800.906667 829.653333a32.288 32.288 0 0 1-45.248-0.757333 31.317333 31.317333 0 0 1 0.768-44.693333c157.653333-150.464 157.653333-393.962667 0-544.426667a31.317333 31.317333 0 0 1-0.768-44.682667 32.288 32.288 0 0 1 45.248-0.757333c183.68 175.306667 183.68 460.010667 0 635.317333z m-106.901334-126.186666a32.288 32.288 0 0 1-45.248-1.216 31.328 31.328 0 0 1 1.237334-44.672c86.229333-80.608 86.229333-210.56 0-291.178667a31.328 31.328 0 0 1-1.237334-44.672 32.288 32.288 0 0 1 45.248-1.216c112.885333 105.546667 112.885333 277.418667 0 382.965333z" p-id="12513" data-spm-anchor-id="a313x.7781069.0.i17" class="selected" fill="var(--h2-color)"></path></svg>