<?xml version="1.0" encoding="UTF-8" standalone="no"?>
<svg
   version="1.1"
   width="801"
   height="194"
   style="clip-rule:evenodd;fill-rule:evenodd;image-rendering:optimizeQuality;shape-rendering:geometricPrecision;text-rendering:geometricPrecision"
   id="svg34"
   sodipodi:docname="mail-bg.svg"
   inkscape:version="1.1 (c68e22c387, 2021-05-23)"
   xmlns:inkscape="http://www.inkscape.org/namespaces/inkscape"
   xmlns:sodipodi="http://sodipodi.sourceforge.net/DTD/sodipodi-0.dtd"
   xmlns="http://www.w3.org/2000/svg"
   xmlns:svg="http://www.w3.org/2000/svg">
  <defs
     id="defs38" />
  <sodipodi:namedview
     id="namedview36"
     pagecolor="#ffffff"
     bordercolor="#666666"
     borderopacity="1.0"
     inkscape:pageshadow="2"
     inkscape:pageopacity="0.0"
     inkscape:pagecheckerboard="0"
     showgrid="false"
     inkscape:zoom="1.5443196"
     inkscape:cx="401.14753"
     inkscape:cy="24.930073"
     inkscape:window-width="2560"
     inkscape:window-height="1411"
     inkscape:window-x="-9"
     inkscape:window-y="-9"
     inkscape:window-maximized="1"
     inkscape:current-layer="svg34"
     fit-margin-top="0"
     fit-margin-left="0"
     fit-margin-right="0"
     fit-margin-bottom="0" />
  <g
     id="g16"
     transform="translate(0.5,-144.5)">
    <path
       style="opacity:0.999"
       fill="#cae0eb"
       d="m 10.5,144.5 c 0,19.333 0,38.667 0,58 -3.66667,-0.667 -7.33333,-1.333 -11,-2 0,-16.667 0,-33.333 0,-50 3.16902,-1.417 6.16902,-3.083 9,-5 0.66667,-0.333 1.33333,-0.667 2,-1 z"
       id="path14" />
  </g>
  <g
     id="g20"
     transform="translate(0.5,-144.5)">
    <path
       style="opacity:1"
       fill="#c8dde8"
       d="m 791.5,146.5 c 2,0.667 4,1.333 6,2 0.473,1.406 1.473,2.073 3,2 0,16.667 0,33.333 0,50 -2.982,0.463 -5.982,0.796 -9,1 0,-18.333 0,-36.667 0,-55 z"
       id="path18" />
  </g>
  <g
     id="g24"
     transform="translate(0.5,-144.5)">
    <path
       style="opacity:1"
       fill="#daeaf1"
       d="m -0.5,200.5 c 3.66667,0.667 7.33333,1.333 11,2 99.959,14.995 199.959,29.661 300,44 -103.343,30.674 -206.676,61.34 -310,92 -0.333333,0 -0.666667,0 -1,0 0,-46 0,-92 0,-138 z"
       id="path22" />
  </g>
  <g
     id="g28"
     transform="translate(0.5,-144.5)">
    <path
       style="opacity:1"
       fill="#dbeaf1"
       d="m 800.5,200.5 c 0,46 0,92 0,138 -0.667,0 -1.333,0 -2,0 -102.988,-30.829 -205.988,-61.495 -309,-92 100.864,-14.573 201.53,-29.573 302,-45 3.018,-0.204 6.018,-0.537 9,-1 z"
       id="path26" />
  </g>
  <g
     id="g32"
     transform="translate(0.5,-144.5)">
    <path
       style="opacity:1"
       fill="#c6e3f0"
       d="m 489.5,246.5 c 103.012,30.505 206.012,61.171 309,92 -266,0 -532,0 -798,0 103.324,-30.66 206.657,-61.326 310,-92 23.314,-5.981 46.314,-13.147 69,-21.5 14.417,-2.304 28.751,-1.971 43,1 21.998,7.944 44.331,14.777 67,20.5 z"
       id="path30" />
  </g>
</svg>
